<svg xmlns="http://www.w3.org/2000/svg" xmlns:xlink="http://www.w3.org/1999/xlink" width="500" zoomAndPan="magnify" viewBox="0 0 375 374.999991" height="500" preserveAspectRatio="xMidYMid meet" version="1.0"><defs><g/><clipPath id="cc0227d4d8"><path d="M 169.078125 167.488281 L 291.328125 167.488281 L 291.328125 192.238281 L 169.078125 192.238281 Z M 169.078125 167.488281 " clip-rule="nonzero"/></clipPath></defs><rect x="-37.5" width="450" fill="#ffffff" y="-37.499999" height="449.999989" fill-opacity="1"/><rect x="-37.5" width="450" fill="#ffffff" y="-37.499999" height="449.999989" fill-opacity="1"/><rect x="-37.5" width="450" fill="#f8f8f8" y="-37.499999" height="449.999989" fill-opacity="1"/><g fill="#000000" fill-opacity="1"><g transform="translate(115.240266, 187.724373)"><g><path d="M 98.21875 -11.09375 C 87.175781 -2.738281 73.945312 1.4375 58.53125 1.4375 C 43.125 1.4375 30.71875 -3.503906 21.3125 -13.390625 C 11.90625 -23.285156 7.203125 -35.625 7.203125 -50.40625 C 7.203125 -65.1875 11.738281 -77.5 20.8125 -87.34375 C 29.882812 -97.1875 42.101562 -102.109375 57.46875 -102.109375 C 64.570312 -102.109375 71.675781 -101.144531 78.78125 -99.21875 C 85.882812 -97.300781 91.257812 -95.335938 94.90625 -93.328125 L 94.90625 -74.890625 L 93.328125 -75.171875 C 90.921875 -83.816406 86.765625 -89.914062 80.859375 -93.46875 C 74.953125 -97.019531 67.15625 -98.796875 57.46875 -98.796875 C 45.175781 -98.796875 35.8125 -94.351562 29.375 -85.46875 C 22.945312 -76.59375 19.734375 -65 19.734375 -50.6875 C 19.734375 -36.382812 23.140625 -24.816406 29.953125 -15.984375 C 36.773438 -7.148438 46.328125 -2.734375 58.609375 -2.734375 C 67.441406 -2.734375 74.8125 -3.8125 80.71875 -5.96875 C 86.625 -8.132812 92.457031 -11.28125 98.21875 -15.40625 Z M 98.21875 -11.09375 "/></g></g></g><g clip-path="url(#cc0227d4d8)"><path fill="#f8f8f8" d="M 169.101562 167.488281 L 291.300781 167.488281 L 291.300781 192.238281 L 169.101562 192.238281 L 169.101562 167.488281 " fill-opacity="1" fill-rule="nonzero"/></g><g fill="#000000" fill-opacity="1"><g transform="translate(144.946251, 223.200993)"><g><path d="M 69.796875 -1.890625 C 73.785156 -1.890625 76.59375 -2.203125 78.21875 -2.828125 C 79.84375 -3.460938 80.65625 -5.09375 80.65625 -7.71875 C 80.65625 -10.34375 77.875 -19.269531 72.3125 -34.5 L 24.265625 -34.5 C 19.742188 -21.164062 17.484375 -12.789062 17.484375 -9.375 C 17.484375 -5.957031 18.347656 -3.851562 20.078125 -3.0625 C 21.816406 -2.28125 24.945312 -1.890625 29.46875 -1.890625 L 29.78125 0 L -5.671875 0 L -5.359375 -1.890625 C -2.304688 -1.890625 0.0820312 -2.148438 1.8125 -2.671875 C 3.539062 -3.203125 5.429688 -4.59375 7.484375 -6.84375 C 9.535156 -9.101562 11.503906 -12.382812 13.390625 -16.6875 C 15.285156 -21 17.546875 -27.039062 20.171875 -34.8125 L 34.1875 -75.3125 C 39.125 -89.59375 41.59375 -98.253906 41.59375 -101.296875 C 41.59375 -104.347656 40.859375 -106.316406 39.390625 -107.203125 C 37.921875 -108.097656 35.082031 -108.546875 30.875 -108.546875 L 30.5625 -110.28125 L 56.5625 -110.28125 L 84.4375 -34.8125 C 89.164062 -22.3125 92.34375 -14.378906 93.96875 -11.015625 C 95.601562 -7.660156 97.15625 -5.507812 98.625 -4.5625 C 101.25 -2.78125 104.554688 -1.890625 108.546875 -1.890625 L 108.859375 0 L 69.484375 0 Z M 47.734375 -101.78125 L 25.515625 -38.28125 L 71.046875 -38.28125 Z M 47.734375 -101.78125 "/></g></g></g><g fill="#000000" fill-opacity="1"><g transform="translate(95.092206, 270.746891)"><g><path d="M 18.84375 -2.125 C 16.726562 -0.519531 14.191406 0.28125 11.234375 0.28125 C 8.273438 0.28125 5.890625 -0.664062 4.078125 -2.5625 C 2.273438 -4.46875 1.375 -6.835938 1.375 -9.671875 C 1.375 -12.515625 2.242188 -14.878906 3.984375 -16.765625 C 5.734375 -18.648438 8.082031 -19.59375 11.03125 -19.59375 C 12.394531 -19.59375 13.757812 -19.40625 15.125 -19.03125 C 16.488281 -18.664062 17.519531 -18.289062 18.21875 -17.90625 L 18.21875 -14.375 L 17.90625 -14.421875 C 17.445312 -16.085938 16.648438 -17.257812 15.515625 -17.9375 C 14.378906 -18.625 12.882812 -18.96875 11.03125 -18.96875 C 8.664062 -18.96875 6.863281 -18.113281 5.625 -16.40625 C 4.394531 -14.695312 3.78125 -12.46875 3.78125 -9.71875 C 3.78125 -6.976562 4.4375 -4.757812 5.75 -3.0625 C 7.0625 -1.375 8.894531 -0.53125 11.25 -0.53125 C 12.945312 -0.53125 14.359375 -0.734375 15.484375 -1.140625 C 16.617188 -1.554688 17.738281 -2.160156 18.84375 -2.953125 Z M 18.84375 -2.125 "/></g></g></g><g fill="#000000" fill-opacity="1"><g transform="translate(114.775059, 270.746891)"><g><path d="M 11.390625 -8.921875 L 11.390625 -6.140625 C 11.390625 -4.085938 11.453125 -2.742188 11.578125 -2.109375 C 11.710938 -1.472656 12.023438 -1.15625 12.515625 -1.15625 C 12.828125 -1.15625 13.242188 -1.285156 13.765625 -1.546875 L 13.90625 -1.265625 C 13.757812 -1.160156 13.566406 -1.03125 13.328125 -0.875 C 13.085938 -0.71875 12.597656 -0.507812 11.859375 -0.25 C 11.117188 0.0078125 10.410156 0.140625 9.734375 0.140625 C 9.546875 -0.628906 9.453125 -1.863281 9.453125 -3.5625 C 9.046875 -2.425781 8.515625 -1.5 7.859375 -0.78125 C 7.203125 -0.0703125 6.296875 0.28125 5.140625 0.28125 C 3.984375 0.28125 3.066406 -0.0234375 2.390625 -0.640625 C 1.710938 -1.265625 1.375 -2.109375 1.375 -3.171875 C 1.375 -6.140625 4.066406 -7.632812 9.453125 -7.65625 L 9.453125 -8.65625 C 9.453125 -9.976562 9.257812 -10.988281 8.875 -11.6875 C 8.488281 -12.394531 7.769531 -12.75 6.71875 -12.75 C 6.125 -12.75 5.640625 -12.597656 5.265625 -12.296875 C 4.898438 -12.003906 4.65625 -11.679688 4.53125 -11.328125 C 4.21875 -10.367188 3.753906 -9.890625 3.140625 -9.890625 C 2.523438 -9.890625 2.21875 -10.234375 2.21875 -10.921875 C 2.21875 -11.617188 2.675781 -12.195312 3.59375 -12.65625 C 4.507812 -13.113281 5.625 -13.34375 6.9375 -13.34375 C 8.25 -13.34375 9.316406 -12.96875 10.140625 -12.21875 C 10.972656 -11.476562 11.390625 -10.378906 11.390625 -8.921875 Z M 3.484375 -3.0625 C 3.484375 -2.34375 3.65625 -1.75 4 -1.28125 C 4.351562 -0.8125 4.910156 -0.578125 5.671875 -0.578125 C 6.441406 -0.578125 7.140625 -0.945312 7.765625 -1.6875 C 8.390625 -2.4375 8.816406 -3.269531 9.046875 -4.1875 C 9.273438 -5.101562 9.410156 -6.046875 9.453125 -7.015625 C 7.410156 -7.003906 5.90625 -6.628906 4.9375 -5.890625 C 3.96875 -5.148438 3.484375 -4.207031 3.484375 -3.0625 Z M 3.484375 -3.0625 "/></g></g></g><g fill="#000000" fill-opacity="1"><g transform="translate(129.371333, 270.746891)"><g><path d="M 5.0625 -20.34375 L 5.0625 -4.8125 C 5.0625 -2.757812 5.179688 -1.5 5.421875 -1.03125 C 5.660156 -0.5625 6.320312 -0.328125 7.40625 -0.328125 L 7.46875 0 L 0.6875 0 L 0.75 -0.328125 C 1.851562 -0.328125 2.523438 -0.554688 2.765625 -1.015625 C 3.003906 -1.484375 3.125 -2.75 3.125 -4.8125 L 3.125 -15.375 C 3.125 -17.414062 3.015625 -18.648438 2.796875 -19.078125 C 2.722656 -19.203125 2.582031 -19.328125 2.375 -19.453125 C 2.175781 -19.585938 1.957031 -19.660156 1.71875 -19.671875 C 1.488281 -19.691406 1.164062 -19.703125 0.75 -19.703125 L 0.6875 -20.015625 C 2.070312 -20.234375 3.53125 -20.34375 5.0625 -20.34375 Z M 5.0625 -20.34375 "/></g></g></g><g fill="#000000" fill-opacity="1"><g transform="translate(137.664671, 270.746891)"><g><path d="M 3.40625 -16.671875 C 3.09375 -16.984375 2.9375 -17.347656 2.9375 -17.765625 C 2.9375 -18.191406 3.09375 -18.5625 3.40625 -18.875 C 3.71875 -19.1875 4.082031 -19.34375 4.5 -19.34375 C 4.925781 -19.34375 5.296875 -19.1875 5.609375 -18.875 C 5.921875 -18.5625 6.078125 -18.191406 6.078125 -17.765625 C 6.078125 -17.347656 5.921875 -16.984375 5.609375 -16.671875 C 5.296875 -16.359375 4.925781 -16.203125 4.5 -16.203125 C 4.082031 -16.203125 3.71875 -16.359375 3.40625 -16.671875 Z M 5.5625 -13.34375 L 5.5625 -4.5625 C 5.5625 -2.625 5.675781 -1.429688 5.90625 -0.984375 C 6.132812 -0.546875 6.789062 -0.328125 7.875 -0.328125 L 7.9375 0 L 1.1875 0 L 1.25 -0.328125 C 2.351562 -0.328125 3.023438 -0.550781 3.265625 -1 C 3.503906 -1.457031 3.625 -2.660156 3.625 -4.609375 L 3.625 -6.546875 C 3.625 -8.679688 3.5625 -10.09375 3.4375 -10.78125 C 3.320312 -11.476562 3.15625 -11.929688 2.9375 -12.140625 C 2.488281 -12.546875 1.804688 -12.75 0.890625 -12.75 L 0.828125 -13.046875 C 2.429688 -13.242188 4.007812 -13.34375 5.5625 -13.34375 Z M 5.5625 -13.34375 "/></g></g></g><g fill="#000000" fill-opacity="1"><g transform="translate(146.427961, 270.746891)"><g><path d="M 5.640625 -12.46875 L 5.640625 -6.25 C 5.640625 -4.28125 5.695312 -2.9375 5.8125 -2.21875 C 5.9375 -1.5 6.109375 -1.046875 6.328125 -0.859375 C 6.753906 -0.503906 7.425781 -0.328125 8.34375 -0.328125 L 8.40625 0 L 0.96875 0 L 1.015625 -0.328125 C 1.460938 -0.328125 1.816406 -0.34375 2.078125 -0.375 C 2.347656 -0.414062 2.59375 -0.519531 2.8125 -0.6875 C 3.039062 -0.851562 3.203125 -1.039062 3.296875 -1.25 C 3.398438 -1.46875 3.488281 -1.828125 3.5625 -2.328125 C 3.65625 -2.972656 3.703125 -4.28125 3.703125 -6.25 L 3.703125 -12.46875 L 1.15625 -12.46875 L 1.15625 -13.078125 L 3.703125 -13.078125 C 3.703125 -16.554688 4.363281 -18.800781 5.6875 -19.8125 C 6.394531 -20.332031 7.234375 -20.59375 8.203125 -20.59375 C 9.179688 -20.59375 10.113281 -20.332031 11 -19.8125 C 11.882812 -19.300781 12.328125 -18.710938 12.328125 -18.046875 C 12.328125 -17.773438 12.21875 -17.535156 12 -17.328125 C 11.789062 -17.128906 11.507812 -17.03125 11.15625 -17.03125 C 10.8125 -17.03125 10.507812 -17.175781 10.25 -17.46875 C 10 -17.757812 9.8125 -18.078125 9.6875 -18.421875 C 9.570312 -18.765625 9.363281 -19.082031 9.0625 -19.375 C 8.769531 -19.664062 8.398438 -19.8125 7.953125 -19.8125 C 7.015625 -19.8125 6.394531 -19.375 6.09375 -18.5 C 5.789062 -17.625 5.640625 -16.25 5.640625 -14.375 L 5.640625 -13.078125 L 9.28125 -13.078125 L 9.28125 -12.46875 Z M 5.640625 -12.46875 "/></g></g></g><g fill="#000000" fill-opacity="1"><g transform="translate(156.269387, 270.746891)"><g><path d="M 1.109375 -6.53125 C 1.109375 -8.457031 1.660156 -10.070312 2.765625 -11.375 C 3.867188 -12.6875 5.367188 -13.34375 7.265625 -13.34375 C 9.160156 -13.34375 10.6875 -12.6875 11.84375 -11.375 C 13.007812 -10.070312 13.59375 -8.453125 13.59375 -6.515625 C 13.59375 -4.585938 13.035156 -2.972656 11.921875 -1.671875 C 10.804688 -0.367188 9.300781 0.28125 7.40625 0.28125 C 5.507812 0.28125 3.984375 -0.375 2.828125 -1.6875 C 1.679688 -3 1.109375 -4.613281 1.109375 -6.53125 Z M 4.296875 -2.046875 C 5.023438 -0.867188 6.0625 -0.28125 7.40625 -0.28125 C 8.75 -0.28125 9.765625 -0.859375 10.453125 -2.015625 C 11.148438 -3.179688 11.5 -4.679688 11.5 -6.515625 C 11.5 -8.347656 11.128906 -9.851562 10.390625 -11.03125 C 9.648438 -12.207031 8.613281 -12.796875 7.28125 -12.796875 C 5.945312 -12.796875 4.929688 -12.207031 4.234375 -11.03125 C 3.546875 -9.863281 3.203125 -8.367188 3.203125 -6.546875 C 3.203125 -4.722656 3.566406 -3.222656 4.296875 -2.046875 Z M 4.296875 -2.046875 "/></g></g></g><g fill="#000000" fill-opacity="1"><g transform="translate(170.976234, 270.746891)"><g><path d="M 9.625 -13.484375 C 10.082031 -13.484375 10.484375 -13.378906 10.828125 -13.171875 C 11.179688 -12.972656 11.359375 -12.695312 11.359375 -12.34375 C 11.359375 -12 11.25 -11.722656 11.03125 -11.515625 C 10.8125 -11.316406 10.5625 -11.21875 10.28125 -11.21875 C 10.007812 -11.21875 9.664062 -11.335938 9.25 -11.578125 C 8.832031 -11.816406 8.394531 -11.9375 7.9375 -11.9375 C 7.21875 -11.9375 6.628906 -11.269531 6.171875 -9.9375 C 5.722656 -8.613281 5.5 -7.078125 5.5 -5.328125 C 5.5 -2.972656 5.617188 -1.546875 5.859375 -1.046875 C 5.929688 -0.878906 6.066406 -0.726562 6.265625 -0.59375 C 6.472656 -0.457031 6.6875 -0.378906 6.90625 -0.359375 C 7.125 -0.335938 7.4375 -0.328125 7.84375 -0.328125 L 7.90625 0 L 1.1875 0 L 1.25 -0.328125 C 1.832031 -0.328125 2.257812 -0.359375 2.53125 -0.421875 C 2.800781 -0.492188 3.023438 -0.722656 3.203125 -1.109375 C 3.390625 -1.492188 3.492188 -1.972656 3.515625 -2.546875 C 3.546875 -3.128906 3.5625 -4.054688 3.5625 -5.328125 L 3.5625 -6.9375 C 3.5625 -9.5 3.492188 -10.953125 3.359375 -11.296875 C 3.222656 -11.648438 3.097656 -11.925781 2.984375 -12.125 C 2.867188 -12.332031 2.703125 -12.472656 2.484375 -12.546875 C 2.078125 -12.660156 1.546875 -12.71875 0.890625 -12.71875 L 0.828125 -13.015625 C 2.390625 -13.234375 3.945312 -13.34375 5.5 -13.34375 L 5.5 -9.28125 C 5.695312 -10.59375 6.148438 -11.617188 6.859375 -12.359375 C 7.578125 -13.109375 8.5 -13.484375 9.625 -13.484375 Z M 9.625 -13.484375 "/></g></g></g><g fill="#000000" fill-opacity="1"><g transform="translate(182.3381, 270.746891)"><g><path d="M 5.5625 -13.34375 L 5.5625 -8.40625 C 5.71875 -9.726562 6.175781 -10.878906 6.9375 -11.859375 C 7.695312 -12.847656 8.703125 -13.34375 9.953125 -13.34375 C 12.765625 -13.34375 14.171875 -11.867188 14.171875 -8.921875 L 14.171875 -4.5625 C 14.171875 -2.644531 14.296875 -1.457031 14.546875 -1 C 14.796875 -0.550781 15.457031 -0.328125 16.53125 -0.328125 L 16.578125 0 L 9.875 0 L 9.921875 -0.328125 C 11.023438 -0.328125 11.6875 -0.554688 11.90625 -1.015625 C 12.132812 -1.484375 12.25 -2.75 12.25 -4.8125 L 12.25 -8.65625 C 12.25 -9.925781 12.050781 -10.882812 11.65625 -11.53125 C 11.257812 -12.175781 10.628906 -12.5 9.765625 -12.5 C 8.910156 -12.5 8.195312 -12.207031 7.625 -11.625 C 7.050781 -11.039062 6.628906 -10.304688 6.359375 -9.421875 C 5.828125 -7.710938 5.5625 -5.988281 5.5625 -4.25 C 5.5625 -2.519531 5.675781 -1.429688 5.90625 -0.984375 C 6.132812 -0.546875 6.789062 -0.328125 7.875 -0.328125 L 7.9375 0 L 1.1875 0 L 1.25 -0.328125 C 2.351562 -0.328125 3.023438 -0.550781 3.265625 -1 C 3.503906 -1.457031 3.625 -2.660156 3.625 -4.609375 L 3.625 -6.828125 C 3.625 -9.585938 3.484375 -11.253906 3.203125 -11.828125 C 3.109375 -12.035156 2.945312 -12.21875 2.71875 -12.375 C 2.488281 -12.539062 2.238281 -12.644531 1.96875 -12.6875 C 1.707031 -12.726562 1.347656 -12.75 0.890625 -12.75 L 0.828125 -13.046875 C 2.429688 -13.242188 4.007812 -13.34375 5.5625 -13.34375 Z M 5.5625 -13.34375 "/></g></g></g><g fill="#000000" fill-opacity="1"><g transform="translate(199.754106, 270.746891)"><g><path d="M 3.40625 -16.671875 C 3.09375 -16.984375 2.9375 -17.347656 2.9375 -17.765625 C 2.9375 -18.191406 3.09375 -18.5625 3.40625 -18.875 C 3.71875 -19.1875 4.082031 -19.34375 4.5 -19.34375 C 4.925781 -19.34375 5.296875 -19.1875 5.609375 -18.875 C 5.921875 -18.5625 6.078125 -18.191406 6.078125 -17.765625 C 6.078125 -17.347656 5.921875 -16.984375 5.609375 -16.671875 C 5.296875 -16.359375 4.925781 -16.203125 4.5 -16.203125 C 4.082031 -16.203125 3.71875 -16.359375 3.40625 -16.671875 Z M 5.5625 -13.34375 L 5.5625 -4.5625 C 5.5625 -2.625 5.675781 -1.429688 5.90625 -0.984375 C 6.132812 -0.546875 6.789062 -0.328125 7.875 -0.328125 L 7.9375 0 L 1.1875 0 L 1.25 -0.328125 C 2.351562 -0.328125 3.023438 -0.550781 3.265625 -1 C 3.503906 -1.457031 3.625 -2.660156 3.625 -4.609375 L 3.625 -6.546875 C 3.625 -8.679688 3.5625 -10.09375 3.4375 -10.78125 C 3.320312 -11.476562 3.15625 -11.929688 2.9375 -12.140625 C 2.488281 -12.546875 1.804688 -12.75 0.890625 -12.75 L 0.828125 -13.046875 C 2.429688 -13.242188 4.007812 -13.34375 5.5625 -13.34375 Z M 5.5625 -13.34375 "/></g></g></g><g fill="#000000" fill-opacity="1"><g transform="translate(208.517396, 270.746891)"><g><path d="M 11.390625 -8.921875 L 11.390625 -6.140625 C 11.390625 -4.085938 11.453125 -2.742188 11.578125 -2.109375 C 11.710938 -1.472656 12.023438 -1.15625 12.515625 -1.15625 C 12.828125 -1.15625 13.242188 -1.285156 13.765625 -1.546875 L 13.90625 -1.265625 C 13.757812 -1.160156 13.566406 -1.03125 13.328125 -0.875 C 13.085938 -0.71875 12.597656 -0.507812 11.859375 -0.25 C 11.117188 0.0078125 10.410156 0.140625 9.734375 0.140625 C 9.546875 -0.628906 9.453125 -1.863281 9.453125 -3.5625 C 9.046875 -2.425781 8.515625 -1.5 7.859375 -0.78125 C 7.203125 -0.0703125 6.296875 0.28125 5.140625 0.28125 C 3.984375 0.28125 3.066406 -0.0234375 2.390625 -0.640625 C 1.710938 -1.265625 1.375 -2.109375 1.375 -3.171875 C 1.375 -6.140625 4.066406 -7.632812 9.453125 -7.65625 L 9.453125 -8.65625 C 9.453125 -9.976562 9.257812 -10.988281 8.875 -11.6875 C 8.488281 -12.394531 7.769531 -12.75 6.71875 -12.75 C 6.125 -12.75 5.640625 -12.597656 5.265625 -12.296875 C 4.898438 -12.003906 4.65625 -11.679688 4.53125 -11.328125 C 4.21875 -10.367188 3.753906 -9.890625 3.140625 -9.890625 C 2.523438 -9.890625 2.21875 -10.234375 2.21875 -10.921875 C 2.21875 -11.617188 2.675781 -12.195312 3.59375 -12.65625 C 4.507812 -13.113281 5.625 -13.34375 6.9375 -13.34375 C 8.25 -13.34375 9.316406 -12.96875 10.140625 -12.21875 C 10.972656 -11.476562 11.390625 -10.378906 11.390625 -8.921875 Z M 3.484375 -3.0625 C 3.484375 -2.34375 3.65625 -1.75 4 -1.28125 C 4.351562 -0.8125 4.910156 -0.578125 5.671875 -0.578125 C 6.441406 -0.578125 7.140625 -0.945312 7.765625 -1.6875 C 8.390625 -2.4375 8.816406 -3.269531 9.046875 -4.1875 C 9.273438 -5.101562 9.410156 -6.046875 9.453125 -7.015625 C 7.410156 -7.003906 5.90625 -6.628906 4.9375 -5.890625 C 3.96875 -5.148438 3.484375 -4.207031 3.484375 -3.0625 Z M 3.484375 -3.0625 "/></g></g></g><g fill="#000000" fill-opacity="1"><g transform="translate(223.11367, 270.746891)"><g/></g></g><g fill="#000000" fill-opacity="1"><g transform="translate(230.02478, 270.746891)"><g><path d="M 18.84375 -2.125 C 16.726562 -0.519531 14.191406 0.28125 11.234375 0.28125 C 8.273438 0.28125 5.890625 -0.664062 4.078125 -2.5625 C 2.273438 -4.46875 1.375 -6.835938 1.375 -9.671875 C 1.375 -12.515625 2.242188 -14.878906 3.984375 -16.765625 C 5.734375 -18.648438 8.082031 -19.59375 11.03125 -19.59375 C 12.394531 -19.59375 13.757812 -19.40625 15.125 -19.03125 C 16.488281 -18.664062 17.519531 -18.289062 18.21875 -17.90625 L 18.21875 -14.375 L 17.90625 -14.421875 C 17.445312 -16.085938 16.648438 -17.257812 15.515625 -17.9375 C 14.378906 -18.625 12.882812 -18.96875 11.03125 -18.96875 C 8.664062 -18.96875 6.863281 -18.113281 5.625 -16.40625 C 4.394531 -14.695312 3.78125 -12.46875 3.78125 -9.71875 C 3.78125 -6.976562 4.4375 -4.757812 5.75 -3.0625 C 7.0625 -1.375 8.894531 -0.53125 11.25 -0.53125 C 12.945312 -0.53125 14.359375 -0.734375 15.484375 -1.140625 C 16.617188 -1.554688 17.738281 -2.160156 18.84375 -2.953125 Z M 18.84375 -2.125 "/></g></g></g><g fill="#000000" fill-opacity="1"><g transform="translate(249.707632, 270.746891)"><g><path d="M 1.109375 -6.53125 C 1.109375 -8.457031 1.660156 -10.070312 2.765625 -11.375 C 3.867188 -12.6875 5.367188 -13.34375 7.265625 -13.34375 C 9.160156 -13.34375 10.6875 -12.6875 11.84375 -11.375 C 13.007812 -10.070312 13.59375 -8.453125 13.59375 -6.515625 C 13.59375 -4.585938 13.035156 -2.972656 11.921875 -1.671875 C 10.804688 -0.367188 9.300781 0.28125 7.40625 0.28125 C 5.507812 0.28125 3.984375 -0.375 2.828125 -1.6875 C 1.679688 -3 1.109375 -4.613281 1.109375 -6.53125 Z M 4.296875 -2.046875 C 5.023438 -0.867188 6.0625 -0.28125 7.40625 -0.28125 C 8.75 -0.28125 9.765625 -0.859375 10.453125 -2.015625 C 11.148438 -3.179688 11.5 -4.679688 11.5 -6.515625 C 11.5 -8.347656 11.128906 -9.851562 10.390625 -11.03125 C 9.648438 -12.207031 8.613281 -12.796875 7.28125 -12.796875 C 5.945312 -12.796875 4.929688 -12.207031 4.234375 -11.03125 C 3.546875 -9.863281 3.203125 -8.367188 3.203125 -6.546875 C 3.203125 -4.722656 3.566406 -3.222656 4.296875 -2.046875 Z M 4.296875 -2.046875 "/></g></g></g><g fill="#000000" fill-opacity="1"><g transform="translate(264.414479, 270.746891)"><g><path d="M 5.5625 -13.34375 L 5.5625 -8.40625 C 5.71875 -9.726562 6.175781 -10.878906 6.9375 -11.859375 C 7.695312 -12.847656 8.703125 -13.34375 9.953125 -13.34375 C 12.765625 -13.34375 14.171875 -11.867188 14.171875 -8.921875 L 14.171875 -4.5625 C 14.171875 -2.644531 14.296875 -1.457031 14.546875 -1 C 14.796875 -0.550781 15.457031 -0.328125 16.53125 -0.328125 L 16.578125 0 L 9.875 0 L 9.921875 -0.328125 C 11.023438 -0.328125 11.6875 -0.554688 11.90625 -1.015625 C 12.132812 -1.484375 12.25 -2.75 12.25 -4.8125 L 12.25 -8.65625 C 12.25 -9.925781 12.050781 -10.882812 11.65625 -11.53125 C 11.257812 -12.175781 10.628906 -12.5 9.765625 -12.5 C 8.910156 -12.5 8.195312 -12.207031 7.625 -11.625 C 7.050781 -11.039062 6.628906 -10.304688 6.359375 -9.421875 C 5.828125 -7.710938 5.5625 -5.988281 5.5625 -4.25 C 5.5625 -2.519531 5.675781 -1.429688 5.90625 -0.984375 C 6.132812 -0.546875 6.789062 -0.328125 7.875 -0.328125 L 7.9375 0 L 1.1875 0 L 1.25 -0.328125 C 2.351562 -0.328125 3.023438 -0.550781 3.265625 -1 C 3.503906 -1.457031 3.625 -2.660156 3.625 -4.609375 L 3.625 -6.828125 C 3.625 -9.585938 3.484375 -11.253906 3.203125 -11.828125 C 3.109375 -12.035156 2.945312 -12.21875 2.71875 -12.375 C 2.488281 -12.539062 2.238281 -12.644531 1.96875 -12.6875 C 1.707031 -12.726562 1.347656 -12.75 0.890625 -12.75 L 0.828125 -13.046875 C 2.429688 -13.242188 4.007812 -13.34375 5.5625 -13.34375 Z M 5.5625 -13.34375 "/></g></g></g><g fill="#000000" fill-opacity="1"><g transform="translate(281.830486, 270.746891)"><g><path d="M 1.984375 -4.125 C 1.984375 -2.925781 2.304688 -2.023438 2.953125 -1.421875 C 3.597656 -0.828125 4.367188 -0.53125 5.265625 -0.53125 C 6.160156 -0.53125 6.882812 -0.726562 7.4375 -1.125 C 7.988281 -1.53125 8.265625 -2.078125 8.265625 -2.765625 C 8.265625 -3.460938 8.03125 -4.03125 7.5625 -4.46875 C 7.09375 -4.914062 6.523438 -5.273438 5.859375 -5.546875 C 5.191406 -5.828125 4.519531 -6.113281 3.84375 -6.40625 C 3.175781 -6.707031 2.609375 -7.140625 2.140625 -7.703125 C 1.671875 -8.273438 1.4375 -9.039062 1.4375 -10 C 1.4375 -10.957031 1.863281 -11.753906 2.71875 -12.390625 C 3.582031 -13.023438 4.570312 -13.34375 5.6875 -13.34375 C 7.289062 -13.34375 8.546875 -13.085938 9.453125 -12.578125 C 9.453125 -11.734375 9.34375 -10.550781 9.125 -9.03125 L 8.796875 -9.125 C 8.796875 -10.34375 8.515625 -11.226562 7.953125 -11.78125 C 7.398438 -12.332031 6.734375 -12.609375 5.953125 -12.609375 C 5.171875 -12.609375 4.546875 -12.40625 4.078125 -12 C 3.609375 -11.59375 3.375 -11.039062 3.375 -10.34375 C 3.375 -9.65625 3.609375 -9.101562 4.078125 -8.6875 C 4.546875 -8.28125 5.109375 -7.9375 5.765625 -7.65625 C 6.429688 -7.375 7.101562 -7.082031 7.78125 -6.78125 C 8.457031 -6.476562 9.03125 -6.046875 9.5 -5.484375 C 9.96875 -4.921875 10.203125 -4.234375 10.203125 -3.421875 C 10.203125 -2.242188 9.738281 -1.332031 8.8125 -0.6875 C 7.894531 -0.0390625 6.6875 0.28125 5.1875 0.28125 C 3.6875 0.28125 2.414062 -0.113281 1.375 -0.90625 C 1.375 -1.832031 1.46875 -2.921875 1.65625 -4.171875 Z M 1.984375 -4.125 "/></g></g></g><g fill="#000000" fill-opacity="1"><g transform="translate(293.192352, 270.746891)"><g><path d="M 0.9375 -1.171875 C 0.9375 -1.585938 1.078125 -1.9375 1.359375 -2.21875 C 1.648438 -2.507812 2 -2.65625 2.40625 -2.65625 C 2.8125 -2.65625 3.148438 -2.507812 3.421875 -2.21875 C 3.703125 -1.9375 3.84375 -1.585938 3.84375 -1.171875 C 3.84375 -0.753906 3.695312 -0.40625 3.40625 -0.125 C 3.125 0.144531 2.785156 0.28125 2.390625 0.28125 C 1.992188 0.28125 1.648438 0.144531 1.359375 -0.125 C 1.078125 -0.40625 0.9375 -0.753906 0.9375 -1.171875 Z M 0.9375 -1.171875 "/></g></g></g><g fill="#000000" fill-opacity="1"><g transform="translate(156.217202, 308.996889)"><g><path d="M 18.484375 -5.171875 L 18.484375 -1.734375 C 17.566406 -1.171875 16.457031 -0.691406 15.15625 -0.296875 C 13.863281 0.0859375 12.539062 0.28125 11.1875 0.28125 C 8.257812 0.28125 5.890625 -0.664062 4.078125 -2.5625 C 2.273438 -4.46875 1.375 -6.835938 1.375 -9.671875 C 1.375 -12.515625 2.242188 -14.878906 3.984375 -16.765625 C 5.734375 -18.648438 8.082031 -19.59375 11.03125 -19.59375 C 12.320312 -19.59375 13.617188 -19.410156 14.921875 -19.046875 C 16.234375 -18.691406 17.203125 -18.3125 17.828125 -17.90625 L 17.828125 -14.375 L 17.53125 -14.421875 C 17.320312 -15.898438 16.597656 -17.023438 15.359375 -17.796875 C 14.128906 -18.578125 12.6875 -18.96875 11.03125 -18.96875 C 8.664062 -18.96875 6.863281 -18.117188 5.625 -16.421875 C 4.394531 -14.722656 3.78125 -12.476562 3.78125 -9.6875 C 3.78125 -6.894531 4.425781 -4.640625 5.71875 -2.921875 C 7.007812 -1.210938 8.882812 -0.359375 11.34375 -0.359375 C 13.800781 -0.359375 15.539062 -1.132812 16.5625 -2.6875 L 16.5625 -4.84375 C 16.5625 -6.882812 16.441406 -8.140625 16.203125 -8.609375 C 15.972656 -9.078125 15.304688 -9.3125 14.203125 -9.3125 L 14.15625 -9.59375 L 20.921875 -9.59375 L 20.875 -9.3125 C 19.820312 -9.3125 19.160156 -9.0625 18.890625 -8.5625 C 18.617188 -8.070312 18.484375 -6.941406 18.484375 -5.171875 Z M 18.484375 -5.171875 "/></g></g></g><g fill="#000000" fill-opacity="1"><g transform="translate(178.194538, 308.996889)"><g><path d="M 9.625 -13.484375 C 10.082031 -13.484375 10.484375 -13.378906 10.828125 -13.171875 C 11.179688 -12.972656 11.359375 -12.695312 11.359375 -12.34375 C 11.359375 -12 11.25 -11.722656 11.03125 -11.515625 C 10.8125 -11.316406 10.5625 -11.21875 10.28125 -11.21875 C 10.007812 -11.21875 9.664062 -11.335938 9.25 -11.578125 C 8.832031 -11.816406 8.394531 -11.9375 7.9375 -11.9375 C 7.21875 -11.9375 6.628906 -11.269531 6.171875 -9.9375 C 5.722656 -8.613281 5.5 -7.078125 5.5 -5.328125 C 5.5 -2.972656 5.617188 -1.546875 5.859375 -1.046875 C 5.929688 -0.878906 6.066406 -0.726562 6.265625 -0.59375 C 6.472656 -0.457031 6.6875 -0.378906 6.90625 -0.359375 C 7.125 -0.335938 7.4375 -0.328125 7.84375 -0.328125 L 7.90625 0 L 1.1875 0 L 1.25 -0.328125 C 1.832031 -0.328125 2.257812 -0.359375 2.53125 -0.421875 C 2.800781 -0.492188 3.023438 -0.722656 3.203125 -1.109375 C 3.390625 -1.492188 3.492188 -1.972656 3.515625 -2.546875 C 3.546875 -3.128906 3.5625 -4.054688 3.5625 -5.328125 L 3.5625 -6.9375 C 3.5625 -9.5 3.492188 -10.953125 3.359375 -11.296875 C 3.222656 -11.648438 3.097656 -11.925781 2.984375 -12.125 C 2.867188 -12.332031 2.703125 -12.472656 2.484375 -12.546875 C 2.078125 -12.660156 1.546875 -12.71875 0.890625 -12.71875 L 0.828125 -13.015625 C 2.390625 -13.234375 3.945312 -13.34375 5.5 -13.34375 L 5.5 -9.28125 C 5.695312 -10.59375 6.148438 -11.617188 6.859375 -12.359375 C 7.578125 -13.109375 8.5 -13.484375 9.625 -13.484375 Z M 9.625 -13.484375 "/></g></g></g><g fill="#000000" fill-opacity="1"><g transform="translate(189.556403, 308.996889)"><g><path d="M 1.109375 -6.53125 C 1.109375 -8.457031 1.660156 -10.070312 2.765625 -11.375 C 3.867188 -12.6875 5.367188 -13.34375 7.265625 -13.34375 C 9.160156 -13.34375 10.6875 -12.6875 11.84375 -11.375 C 13.007812 -10.070312 13.59375 -8.453125 13.59375 -6.515625 C 13.59375 -4.585938 13.035156 -2.972656 11.921875 -1.671875 C 10.804688 -0.367188 9.300781 0.28125 7.40625 0.28125 C 5.507812 0.28125 3.984375 -0.375 2.828125 -1.6875 C 1.679688 -3 1.109375 -4.613281 1.109375 -6.53125 Z M 4.296875 -2.046875 C 5.023438 -0.867188 6.0625 -0.28125 7.40625 -0.28125 C 8.75 -0.28125 9.765625 -0.859375 10.453125 -2.015625 C 11.148438 -3.179688 11.5 -4.679688 11.5 -6.515625 C 11.5 -8.347656 11.128906 -9.851562 10.390625 -11.03125 C 9.648438 -12.207031 8.613281 -12.796875 7.28125 -12.796875 C 5.945312 -12.796875 4.929688 -12.207031 4.234375 -11.03125 C 3.546875 -9.863281 3.203125 -8.367188 3.203125 -6.546875 C 3.203125 -4.722656 3.566406 -3.222656 4.296875 -2.046875 Z M 4.296875 -2.046875 "/></g></g></g><g fill="#000000" fill-opacity="1"><g transform="translate(204.26325, 308.996889)"><g><path d="M 11.109375 -3.03125 C 11.398438 -3.738281 11.613281 -4.457031 11.75 -5.1875 C 11.894531 -5.925781 11.96875 -6.71875 11.96875 -7.5625 C 11.96875 -8.414062 11.945312 -9.128906 11.90625 -9.703125 C 11.875 -10.273438 11.8125 -10.785156 11.71875 -11.234375 C 11.625 -11.679688 11.46875 -12.007812 11.25 -12.21875 C 10.84375 -12.570312 10.171875 -12.75 9.234375 -12.75 L 9.171875 -13.046875 C 10.773438 -13.242188 12.351562 -13.34375 13.90625 -13.34375 L 13.90625 -6.140625 C 13.90625 -4.085938 13.96875 -2.742188 14.09375 -2.109375 C 14.226562 -1.472656 14.539062 -1.15625 15.03125 -1.15625 C 15.34375 -1.15625 15.757812 -1.285156 16.28125 -1.546875 L 16.421875 -1.265625 C 16.273438 -1.160156 16.082031 -1.03125 15.84375 -0.875 C 15.601562 -0.71875 15.113281 -0.507812 14.375 -0.25 C 13.632812 0.0078125 12.925781 0.140625 12.25 0.140625 C 12.0625 -0.929688 11.96875 -2.164062 11.96875 -3.5625 C 11.125 -1 9.660156 0.28125 7.578125 0.28125 C 4.753906 0.28125 3.34375 -1.191406 3.34375 -4.140625 L 3.34375 -6.828125 C 3.34375 -9.585938 3.207031 -11.253906 2.9375 -11.828125 C 2.84375 -12.035156 2.675781 -12.21875 2.4375 -12.375 C 2.207031 -12.539062 1.957031 -12.644531 1.6875 -12.6875 C 1.425781 -12.726562 1.066406 -12.75 0.609375 -12.75 L 0.546875 -13.046875 C 2.148438 -13.242188 3.726562 -13.34375 5.28125 -13.34375 L 5.28125 -4.421875 C 5.28125 -3.148438 5.476562 -2.191406 5.875 -1.546875 C 6.269531 -0.898438 6.882812 -0.578125 7.71875 -0.578125 C 8.5625 -0.578125 9.265625 -0.804688 9.828125 -1.265625 C 10.390625 -1.734375 10.816406 -2.320312 11.109375 -3.03125 Z M 11.109375 -3.03125 "/></g></g></g><g fill="#000000" fill-opacity="1"><g transform="translate(221.375164, 308.996889)"><g><path d="M 4.96875 -9.734375 C 5.28125 -10.742188 5.78125 -11.597656 6.46875 -12.296875 C 7.164062 -12.992188 8.097656 -13.34375 9.265625 -13.34375 C 10.441406 -13.34375 11.425781 -12.984375 12.21875 -12.265625 C 13.65625 -10.992188 14.375 -9.070312 14.375 -6.5 C 14.375 -4.5625 13.78125 -2.945312 12.59375 -1.65625 C 11.414062 -0.363281 9.925781 0.28125 8.125 0.28125 C 6.8125 0.28125 5.757812 0.03125 4.96875 -0.46875 L 4.96875 2.796875 C 4.96875 3.898438 4.984375 4.695312 5.015625 5.1875 C 5.046875 5.6875 5.144531 6.113281 5.3125 6.46875 C 5.488281 6.832031 5.71875 7.050781 6 7.125 C 6.289062 7.195312 6.734375 7.234375 7.328125 7.234375 L 7.375 7.578125 L 0.6875 7.578125 L 0.75 7.234375 C 1.8125 7.234375 2.457031 7 2.6875 6.53125 C 2.925781 6.0625 3.046875 4.816406 3.046875 2.796875 L 3.046875 -8.875 C 3.046875 -9.863281 3.03125 -10.570312 3 -11 C 2.96875 -11.425781 2.863281 -11.796875 2.6875 -12.109375 C 2.519531 -12.421875 2.300781 -12.597656 2.03125 -12.640625 C 1.757812 -12.691406 1.332031 -12.71875 0.75 -12.71875 L 0.6875 -13.015625 C 2 -13.234375 3.425781 -13.34375 4.96875 -13.34375 Z M 7.765625 -0.53125 C 9.460938 -0.53125 10.648438 -1.164062 11.328125 -2.4375 C 11.953125 -3.59375 12.265625 -4.945312 12.265625 -6.5 C 12.265625 -7.875 12.066406 -9.15625 11.671875 -10.34375 C 11.429688 -10.988281 11.0625 -11.507812 10.5625 -11.90625 C 10.0625 -12.300781 9.460938 -12.5 8.765625 -12.5 C 8.078125 -12.5 7.46875 -12.253906 6.9375 -11.765625 C 6.40625 -11.273438 6.007812 -10.671875 5.75 -9.953125 C 5.226562 -8.515625 4.96875 -7.296875 4.96875 -6.296875 L 4.96875 -1.984375 C 5.539062 -1.015625 6.472656 -0.53125 7.765625 -0.53125 Z M 7.765625 -0.53125 "/></g></g></g></svg>