<svg xmlns="http://www.w3.org/2000/svg" xmlns:xlink="http://www.w3.org/1999/xlink" width="500" zoomAndPan="magnify" viewBox="0 0 375 374.999991" height="500" preserveAspectRatio="xMidYMid meet" version="1.0"><defs><g/><clipPath id="0d234d87fc"><path d="M 191 102.324219 L 262 102.324219 L 262 108.324219 L 191 108.324219 Z M 191 102.324219 " clip-rule="nonzero"/></clipPath><clipPath id="a7d974217c"><path d="M 113 102.324219 L 184 102.324219 L 184 108.324219 L 113 108.324219 Z M 113 102.324219 " clip-rule="nonzero"/></clipPath><clipPath id="00157ea60a"><path d="M 184 102.324219 L 191 102.324219 L 191 108.324219 L 184 108.324219 Z M 184 102.324219 " clip-rule="nonzero"/></clipPath></defs><rect x="-37.5" width="450" fill="#ffffff" y="-37.499999" height="449.999989" fill-opacity="1"/><rect x="-37.5" width="450" fill="#ffffff" y="-37.499999" height="449.999989" fill-opacity="1"/><rect x="-37.5" width="450" fill="#7c99ac" y="-37.499999" height="449.999989" fill-opacity="1"/><g fill="#545454" fill-opacity="1"><g transform="translate(61.78125, 273.574787)"><g><path d="M 10.238281 0 L 103.585938 0 L 104.988281 -22.683594 L 102.78125 -23.085938 C 95.753906 -8.03125 86.921875 -3.210938 67.652344 -3.210938 L 43.761719 -3.210938 C 37.941406 -3.210938 34.730469 -6.425781 34.730469 -12.246094 L 34.730469 -115.027344 C 34.730469 -131.488281 36.535156 -136.105469 42.757812 -137.910156 L 42.757812 -140.523438 L 10.238281 -140.523438 L 10.238281 -137.910156 C 16.261719 -136.105469 18.269531 -131.488281 18.269531 -115.027344 L 18.269531 -25.496094 C 18.269531 -9.035156 16.261719 -4.417969 10.238281 -2.609375 Z M 10.238281 0 "/></g></g></g><g fill="#545454" fill-opacity="1"><g transform="translate(161.528255, 80.787083)"><g><path d="M 41.296875 3.609375 C 40.273438 3.609375 39.488281 3.207031 38.9375 2.40625 C 38.394531 1.601562 38.125 0.65625 38.125 -0.4375 C 38.125 -2.550781 39.085938 -5.425781 41.015625 -9.0625 C 39.671875 -8.957031 38.328125 -8.90625 36.984375 -8.90625 C 35.992188 -8.90625 34.132812 -8.957031 31.40625 -9.0625 L 24.421875 -9.28125 C 21.867188 -5.207031 19.789062 -1.492188 18.1875 1.859375 C 17.71875 2.835938 17.082031 3.328125 16.28125 3.328125 C 15.726562 3.328125 15.453125 3.070312 15.453125 2.5625 C 15.453125 2.195312 15.5625 1.796875 15.78125 1.359375 C 16.40625 0.015625 17.21875 -1.546875 18.21875 -3.328125 C 19.21875 -5.117188 20.390625 -7.125 21.734375 -9.34375 C 18.753906 -9.34375 16.769531 -9.210938 15.78125 -8.953125 C 14.144531 -8.554688 12.925781 -7.738281 12.125 -6.5 C 11.832031 -6.101562 11.597656 -5.882812 11.421875 -5.84375 C 11.203125 -5.8125 11.09375 -5.90625 11.09375 -6.125 C 11.09375 -6.300781 11.164062 -6.460938 11.3125 -6.609375 C 12.695312 -8.460938 14.097656 -9.753906 15.515625 -10.484375 C 16.972656 -11.253906 19.503906 -11.582031 23.109375 -11.46875 C 25.367188 -14.851562 28.484375 -19.878906 32.453125 -26.546875 C 33.941406 -29.347656 34.6875 -31.625 34.6875 -33.375 C 34.6875 -36.21875 32.773438 -37.640625 28.953125 -37.640625 C 24.285156 -37.640625 19.953125 -36.421875 15.953125 -33.984375 C 13.835938 -32.671875 11.847656 -31.019531 9.984375 -29.03125 C 8.128906 -27.050781 6.640625 -24.941406 5.515625 -22.703125 C 4.390625 -20.460938 3.828125 -18.265625 3.828125 -16.109375 C 3.828125 -12.722656 5.410156 -11.03125 8.578125 -11.03125 C 9.992188 -11.03125 11.25 -11.367188 12.34375 -12.046875 C 13.4375 -12.722656 14.398438 -13.585938 15.234375 -14.640625 C 16.878906 -16.679688 17.703125 -18.703125 17.703125 -20.703125 C 17.703125 -21.828125 17.410156 -22.753906 16.828125 -23.484375 C 16.753906 -23.554688 16.71875 -23.648438 16.71875 -23.765625 C 16.71875 -24.015625 16.863281 -24.140625 17.15625 -24.140625 C 17.332031 -24.140625 17.441406 -24.085938 17.484375 -23.984375 C 18.210938 -23.035156 18.578125 -21.90625 18.578125 -20.59375 C 18.578125 -18.375 17.664062 -16.097656 15.84375 -13.765625 C 14.707031 -12.378906 13.546875 -11.367188 12.359375 -10.734375 C 11.179688 -10.097656 9.828125 -9.78125 8.296875 -9.78125 C 6.003906 -9.78125 4.21875 -10.5 2.9375 -11.9375 C 1.664062 -13.375 1.03125 -15.222656 1.03125 -17.484375 C 1.03125 -20.535156 1.953125 -23.425781 3.796875 -26.15625 C 5.640625 -28.894531 7.960938 -31.25 10.765625 -33.21875 C 16.296875 -37.113281 22.46875 -38.96875 29.28125 -38.78125 C 30.738281 -38.75 32.101562 -38.484375 33.375 -37.984375 C 34.644531 -37.492188 35.671875 -36.785156 36.453125 -35.859375 C 37.242188 -34.929688 37.640625 -33.773438 37.640625 -32.390625 C 37.640625 -30.640625 36.960938 -28.691406 35.609375 -26.546875 L 25.734375 -11.359375 C 26.460938 -11.328125 27.40625 -11.265625 28.5625 -11.171875 C 29.726562 -11.078125 31.113281 -10.941406 32.71875 -10.765625 C 34.0625 -10.617188 35.1875 -10.515625 36.09375 -10.453125 C 37.007812 -10.398438 37.707031 -10.375 38.1875 -10.375 C 39.019531 -10.375 39.734375 -10.375 40.328125 -10.375 C 40.929688 -10.375 41.414062 -10.394531 41.78125 -10.4375 L 43.859375 -13.875 C 45.679688 -16.894531 47.582031 -19.757812 49.5625 -22.46875 C 51.550781 -25.1875 53.617188 -27.75 55.765625 -30.15625 C 60.648438 -35.539062 64.820312 -38.851562 68.28125 -40.09375 C 68.382812 -40.132812 68.507812 -40.15625 68.65625 -40.15625 C 68.875 -40.15625 68.984375 -40.007812 68.984375 -39.71875 C 68.984375 -39.601562 68.929688 -39.507812 68.828125 -39.4375 C 67.703125 -38.820312 66.328125 -37.738281 64.703125 -36.1875 C 63.078125 -34.644531 61.191406 -32.632812 59.046875 -30.15625 C 54.535156 -24.945312 50.695312 -19.679688 47.53125 -14.359375 L 45.390625 -10.765625 C 47.066406 -10.984375 48.269531 -11.398438 49 -12.015625 C 49.144531 -12.128906 49.269531 -12.078125 49.375 -11.859375 C 49.488281 -11.597656 49.472656 -11.414062 49.328125 -11.3125 C 48.234375 -10.46875 46.6875 -9.863281 44.6875 -9.5 C 42.132812 -4.769531 40.859375 -1.441406 40.859375 0.484375 C 40.859375 1.722656 41.382812 2.34375 42.4375 2.34375 C 43.164062 2.34375 44.015625 2.097656 44.984375 1.609375 C 45.953125 1.117188 46.726562 0.566406 47.3125 -0.046875 C 47.382812 -0.117188 47.4375 -0.15625 47.46875 -0.15625 C 47.582031 -0.15625 47.640625 -0.0507812 47.640625 0.15625 C 47.597656 0.414062 47.503906 0.617188 47.359375 0.765625 C 46.921875 1.203125 46.335938 1.640625 45.609375 2.078125 C 44.878906 2.515625 44.125 2.878906 43.34375 3.171875 C 42.5625 3.460938 41.878906 3.609375 41.296875 3.609375 Z M 41.296875 3.609375 "/></g></g></g><g fill="#545454" fill-opacity="1"><g transform="translate(197.291534, 273.574787)"><g><path d="M 10.238281 0 L 51.191406 0 C 99.972656 0 116.832031 -23.6875 116.433594 -46.171875 C 116.230469 -65.84375 101.777344 -82.105469 69.054688 -83.710938 C 91.941406 -87.925781 100.773438 -100.371094 100.773438 -114.023438 C 100.773438 -130.285156 88.128906 -140.523438 57.210938 -140.523438 L 10.238281 -140.523438 L 10.238281 -137.910156 C 16.261719 -136.105469 18.269531 -131.488281 18.269531 -115.027344 L 18.269531 -25.496094 C 18.269531 -9.035156 16.261719 -4.417969 10.238281 -2.609375 Z M 34.730469 -20.476562 L 34.730469 -81.101562 L 55.203125 -81.101562 C 85.316406 -81.101562 98.164062 -64.238281 98.164062 -41.152344 C 98.164062 -18.871094 85.71875 -3.011719 52.996094 -3.011719 L 45.167969 -3.011719 C 36.535156 -3.011719 34.730469 -6.023438 34.730469 -20.476562 Z M 34.730469 -84.113281 L 34.730469 -137.511719 L 49.984375 -137.511719 C 70.664062 -137.511719 82.507812 -127.070312 82.507812 -110.410156 C 82.507812 -95.753906 73.273438 -84.113281 53.398438 -84.113281 Z M 34.730469 -84.113281 "/></g></g></g><g clip-path="url(#0d234d87fc)"><path fill="#545454" d="M 261.542969 105.238281 L 196 102.484375 L 196 102.523438 C 195.957031 102.523438 195.90625 102.519531 195.859375 102.519531 C 193.582031 102.519531 191.738281 103.785156 191.738281 105.351562 C 191.738281 106.910156 193.582031 108.175781 195.859375 108.175781 C 196.152344 108.175781 196.4375 108.15625 196.714844 108.113281 L 261.542969 105.238281 " fill-opacity="1" fill-rule="nonzero"/></g><g clip-path="url(#a7d974217c)"><path fill="#545454" d="M 113.386719 105.203125 L 178.929688 102.484375 L 178.929688 102.523438 C 178.976562 102.523438 179.023438 102.519531 179.066406 102.519531 C 181.34375 102.519531 183.191406 103.789062 183.191406 105.351562 C 183.1875 106.914062 181.34375 108.175781 179.066406 108.175781 C 178.773438 108.175781 178.488281 108.15625 178.214844 108.113281 L 113.386719 105.203125 " fill-opacity="1" fill-rule="nonzero"/></g><g clip-path="url(#00157ea60a)"><path fill="#545454" d="M 190.195312 105.328125 C 190.195312 106.992188 188.914062 108.335938 187.332031 108.335938 C 185.75 108.335938 184.46875 106.992188 184.46875 105.328125 C 184.46875 103.671875 185.75 102.324219 187.332031 102.324219 C 188.914062 102.324219 190.195312 103.671875 190.195312 105.328125 " fill-opacity="1" fill-rule="nonzero"/></g><path fill="#f4f4f4" d="M 72.566406 224.574219 L 302.558594 224.574219 L 302.558594 257.835938 L 72.566406 257.835938 L 72.566406 224.574219 " fill-opacity="1" fill-rule="nonzero"/><g fill="#545454" fill-opacity="1"><g transform="translate(83.630988, 248.01572)"><g><path d="M 1.179688 0 L 4.933594 0 L 4.933594 -0.300781 C 4.214844 -0.507812 4.003906 -1.042969 4.003906 -2.941406 L 4.003906 -8.40625 L 12.828125 -8.40625 L 12.828125 -2.941406 C 12.828125 -1.042969 12.597656 -0.507812 11.902344 -0.300781 L 11.902344 0 L 15.652344 0 L 15.652344 -0.300781 C 14.933594 -0.507812 14.726562 -1.042969 14.726562 -2.941406 L 14.726562 -13.269531 C 14.726562 -15.167969 14.933594 -15.699219 15.652344 -15.90625 L 15.652344 -16.207031 L 11.902344 -16.207031 L 11.902344 -15.90625 C 12.597656 -15.699219 12.828125 -15.167969 12.828125 -13.269531 L 12.828125 -8.777344 L 4.003906 -8.777344 L 4.003906 -13.269531 C 4.003906 -15.167969 4.214844 -15.699219 4.933594 -15.90625 L 4.933594 -16.207031 L 1.179688 -16.207031 L 1.179688 -15.90625 C 1.875 -15.699219 2.105469 -15.167969 2.105469 -13.269531 L 2.105469 -2.941406 C 2.105469 -1.042969 1.875 -0.507812 1.179688 -0.300781 Z M 1.179688 0 "/></g></g></g><g fill="#545454" fill-opacity="1"><g transform="translate(104.071293, 248.01572)"><g><path d="M 9.445312 0.230469 C 13.335938 0.230469 17.644531 -2.316406 17.644531 -8.035156 C 17.644531 -13.707031 13.359375 -16.394531 9.445312 -16.394531 C 4.539062 -16.394531 1.203125 -12.875 1.203125 -8.128906 C 1.203125 -2.386719 5.511719 0.230469 9.445312 0.230469 Z M 3.054688 -9.46875 C 2.917969 -13.246094 4.976562 -15.859375 8.496094 -15.859375 C 12.640625 -15.859375 15.675781 -11.347656 15.835938 -6.507812 C 15.953125 -3.035156 14.125 -0.347656 10.417969 -0.347656 C 6.273438 -0.347656 3.21875 -4.816406 3.054688 -9.46875 Z M 6.597656 -17.390625 L 6.761719 -17.226562 L 9.167969 -18.40625 L 11.714844 -17.226562 L 11.878906 -17.414062 L 9.238281 -19.980469 L 9.101562 -19.980469 Z M 6.597656 -17.390625 "/></g></g></g><g fill="#545454" fill-opacity="1"><g transform="translate(126.525343, 248.01572)"><g><path d="M 4.609375 0 L 8.382812 0 L 8.382812 -0.300781 C 7.664062 -0.507812 7.457031 -1.042969 7.457031 -2.941406 L 7.457031 -15.835938 L 8.542969 -15.835938 C 10.628906 -15.835938 11.53125 -15.28125 12.316406 -13.613281 L 12.574219 -13.660156 L 12.433594 -16.207031 L 0.507812 -16.207031 L 0.371094 -13.660156 L 0.625 -13.613281 C 1.414062 -15.28125 2.316406 -15.835938 4.398438 -15.835938 L 5.535156 -15.835938 L 5.535156 -2.941406 C 5.535156 -1.042969 5.324219 -0.507812 4.609375 -0.300781 Z M 4.609375 0 "/></g></g></g><g fill="#545454" fill-opacity="1"><g transform="translate(143.123332, 248.01572)"><g><path d="M 1.179688 0 L 12.597656 0 L 12.78125 -3.078125 L 12.527344 -3.125 C 11.691406 -0.972656 10.28125 -0.347656 8.058594 -0.347656 L 5.046875 -0.347656 C 4.375 -0.347656 4.003906 -0.71875 4.003906 -1.390625 L 4.003906 -8.496094 L 6.96875 -8.496094 C 9.609375 -8.496094 10.28125 -7.964844 10.558594 -6.921875 L 10.835938 -6.921875 L 10.835938 -10.417969 L 10.558594 -10.417969 C 10.28125 -9.378906 9.609375 -8.84375 6.96875 -8.84375 L 4.003906 -8.84375 L 4.003906 -15.859375 L 7.410156 -15.859375 C 9.769531 -15.859375 11.136719 -15.167969 11.949219 -13.128906 L 12.203125 -13.199219 L 11.949219 -16.207031 L 1.179688 -16.207031 L 1.179688 -15.90625 C 1.875 -15.699219 2.105469 -15.167969 2.105469 -13.269531 L 2.105469 -2.941406 C 2.105469 -1.042969 1.875 -0.507812 1.179688 -0.300781 Z M 1.179688 0 "/></g></g></g><g fill="#545454" fill-opacity="1"><g transform="translate(160.392578, 248.01572)"><g><path d="M 1.179688 0 L 11.949219 0 L 12.109375 -2.617188 L 11.855469 -2.664062 C 11.042969 -0.925781 10.027344 -0.371094 7.804688 -0.371094 L 5.046875 -0.371094 C 4.375 -0.371094 4.003906 -0.742188 4.003906 -1.414062 L 4.003906 -13.269531 C 4.003906 -15.167969 4.214844 -15.699219 4.933594 -15.90625 L 4.933594 -16.207031 L 1.179688 -16.207031 L 1.179688 -15.90625 C 1.875 -15.699219 2.105469 -15.167969 2.105469 -13.269531 L 2.105469 -2.941406 C 2.105469 -1.042969 1.875 -0.507812 1.179688 -0.300781 Z M 1.179688 0 "/></g></g></g><g fill="#545454" fill-opacity="1"><g transform="translate(176.59708, 248.01572)"><g/></g></g><g fill="#545454" fill-opacity="1"><g transform="translate(185.093818, 248.01572)"><g><path d="M 1.179688 0 L 11.949219 0 L 12.109375 -2.617188 L 11.855469 -2.664062 C 11.042969 -0.925781 10.027344 -0.371094 7.804688 -0.371094 L 5.046875 -0.371094 C 4.375 -0.371094 4.003906 -0.742188 4.003906 -1.414062 L 4.003906 -13.269531 C 4.003906 -15.167969 4.214844 -15.699219 4.933594 -15.90625 L 4.933594 -16.207031 L 1.179688 -16.207031 L 1.179688 -15.90625 C 1.875 -15.699219 2.105469 -15.167969 2.105469 -13.269531 L 2.105469 -2.941406 C 2.105469 -1.042969 1.875 -0.507812 1.179688 -0.300781 Z M 1.179688 0 "/></g></g></g><g fill="#545454" fill-opacity="1"><g transform="translate(201.298321, 248.01572)"><g><path d="M 1.179688 0 L 12.597656 0 L 12.78125 -3.078125 L 12.527344 -3.125 C 11.691406 -0.972656 10.28125 -0.347656 8.058594 -0.347656 L 5.046875 -0.347656 C 4.375 -0.347656 4.003906 -0.71875 4.003906 -1.390625 L 4.003906 -8.496094 L 6.96875 -8.496094 C 9.609375 -8.496094 10.28125 -7.964844 10.558594 -6.921875 L 10.835938 -6.921875 L 10.835938 -10.417969 L 10.558594 -10.417969 C 10.28125 -9.378906 9.609375 -8.84375 6.96875 -8.84375 L 4.003906 -8.84375 L 4.003906 -15.859375 L 7.410156 -15.859375 C 9.769531 -15.859375 11.136719 -15.167969 11.949219 -13.128906 L 12.203125 -13.199219 L 11.949219 -16.207031 L 1.179688 -16.207031 L 1.179688 -15.90625 C 1.875 -15.699219 2.105469 -15.167969 2.105469 -13.269531 L 2.105469 -2.941406 C 2.105469 -1.042969 1.875 -0.507812 1.179688 -0.300781 Z M 1.179688 0 "/></g></g></g><g fill="#545454" fill-opacity="1"><g transform="translate(218.567566, 248.01572)"><g/></g></g><g fill="#545454" fill-opacity="1"><g transform="translate(227.064304, 248.01572)"><g><path d="M 1.179688 0 L 5.90625 0 C 11.53125 0 13.476562 -2.730469 13.429688 -5.324219 C 13.40625 -7.59375 11.738281 -9.46875 7.964844 -9.65625 C 10.605469 -10.140625 11.625 -11.578125 11.625 -13.152344 C 11.625 -15.027344 10.164062 -16.207031 6.597656 -16.207031 L 1.179688 -16.207031 L 1.179688 -15.90625 C 1.875 -15.699219 2.105469 -15.167969 2.105469 -13.269531 L 2.105469 -2.941406 C 2.105469 -1.042969 1.875 -0.507812 1.179688 -0.300781 Z M 4.003906 -2.363281 L 4.003906 -9.355469 L 6.367188 -9.355469 C 9.839844 -9.355469 11.324219 -7.410156 11.324219 -4.746094 C 11.324219 -2.175781 9.886719 -0.347656 6.113281 -0.347656 L 5.210938 -0.347656 C 4.214844 -0.347656 4.003906 -0.695312 4.003906 -2.363281 Z M 4.003906 -9.703125 L 4.003906 -15.859375 L 5.765625 -15.859375 C 8.152344 -15.859375 9.515625 -14.65625 9.515625 -12.734375 C 9.515625 -11.042969 8.453125 -9.703125 6.160156 -9.703125 Z M 4.003906 -9.703125 "/></g></g></g><g fill="#545454" fill-opacity="1"><g transform="translate(244.865912, 248.01572)"><g><path d="M 9.445312 0.230469 C 13.335938 0.230469 17.644531 -2.316406 17.644531 -8.035156 C 17.644531 -13.707031 13.359375 -16.394531 9.445312 -16.394531 C 4.539062 -16.394531 1.203125 -12.875 1.203125 -8.128906 C 1.203125 -2.386719 5.511719 0.230469 9.445312 0.230469 Z M 3.054688 -9.46875 C 2.917969 -13.246094 4.976562 -15.859375 8.496094 -15.859375 C 12.640625 -15.859375 15.675781 -11.347656 15.835938 -6.507812 C 15.953125 -3.035156 14.125 -0.347656 10.417969 -0.347656 C 6.273438 -0.347656 3.21875 -4.816406 3.054688 -9.46875 Z M 3.054688 -9.46875 "/></g></g></g><g fill="#545454" fill-opacity="1"><g transform="translate(267.319954, 248.01572)"><g><path d="M 13.40625 0.183594 L 13.707031 0.183594 L 13.707031 -13.269531 C 13.707031 -15.167969 13.914062 -15.699219 14.632812 -15.90625 L 14.632812 -16.207031 L 11.714844 -16.207031 L 11.714844 -15.90625 C 12.757812 -15.628906 13.3125 -14.980469 13.3125 -12.339844 L 13.3125 -3.101562 L 3.195312 -16.207031 L 0.925781 -16.207031 L 0.925781 -15.90625 C 1.851562 -15.699219 2.128906 -15.167969 2.128906 -13.269531 L 2.128906 -2.941406 C 2.128906 -1.042969 1.898438 -0.507812 1.203125 -0.300781 L 1.203125 0 L 4.097656 0 L 4.097656 -0.300781 C 3.054688 -0.578125 2.5 -1.226562 2.5 -3.867188 L 2.5 -14.007812 Z M 13.40625 0.183594 "/></g></g></g><g fill="#545454" fill-opacity="1"><g transform="translate(286.507364, 248.01572)"><g/></g></g><g fill="#545454" fill-opacity="1"><g transform="translate(189.310338, 279.796544)"><g/></g></g></svg>