<svg xmlns="http://www.w3.org/2000/svg" xmlns:xlink="http://www.w3.org/1999/xlink" width="500" zoomAndPan="magnify" viewBox="0 0 375 374.999991" height="500" preserveAspectRatio="xMidYMid meet" version="1.0"><defs><g/><clipPath id="6b03ab5acf"><path d="M 31.75 150.6875 L 343.75 150.6875 L 343.75 217.4375 L 31.75 217.4375 Z M 31.75 150.6875 " clip-rule="nonzero"/></clipPath></defs><rect x="-37.5" width="450" fill="#ffffff" y="-37.499999" height="449.999989" fill-opacity="1"/><rect x="-37.5" width="450" fill="#ffffff" y="-37.499999" height="449.999989" fill-opacity="1"/><rect x="-37.5" width="450" fill="#452b45" y="-37.499999" height="449.999989" fill-opacity="1"/><g clip-path="url(#6b03ab5acf)"><path fill="#a01ba7" d="M 288.050781 162.570312 C 292.675781 162.339844 297.277344 161.984375 301.890625 161.703125 C 311.140625 161.191406 320.296875 160.347656 329.496094 159.640625 C 329.046875 162.003906 328.625 164.457031 329.953125 166.488281 C 329.953125 166.488281 331.378906 166.304688 333.140625 165.964844 C 334.90625 165.644531 337.023438 165.261719 338.4375 165.003906 C 350.390625 168.492188 348.742188 176.691406 343.496094 183.292969 C 342.132812 184.6875 340.59375 186.261719 338.839844 187.867188 C 337.367188 187.902344 335.890625 187.933594 334.429688 187.964844 C 327.785156 188.148438 321.234375 188.46875 314.628906 189.023438 C 308.0625 189.421875 301.46875 189.957031 294.789062 190.550781 C 281.453125 191.589844 277.503906 192.761719 263.085938 192.941406 C 242.859375 192.625 283.171875 191.367188 263.085938 192.941406 C 286.9375 192.105469 248.164062 194.65625 272.425781 193.332031 C 278.5 193.027344 274.832031 192.722656 280.867188 192.421875 C 286.917969 192.203125 292.9375 191.980469 298.925781 191.765625 C 304.933594 191.546875 310.882812 191.523438 316.84375 191.429688 C 322.824219 191.289062 328.734375 191.332031 334.667969 191.390625 C 330.195312 194.75 324.777344 197.597656 318.207031 198.550781 C 302.542969 199.578125 287.089844 200.589844 271.773438 201.59375 C 271.703125 200.46875 259.800781 202.515625 249.273438 203.191406 C 238.753906 203.792969 228.386719 201.722656 217.953125 201.964844 C 197.078125 202.519531 155.515625 208.988281 155.226562 209.730469 C 155.121094 209.742188 155.019531 209.75 154.921875 209.757812 C 155.019531 209.75 155.121094 209.742188 155.226562 209.730469 C 154.96875 210.386719 155.164062 210.863281 157.84375 210.675781 C 155.164062 210.863281 154.96875 210.386719 155.226562 209.730469 C 197.558594 205.652344 227.46875 203.71875 270.03125 201.722656 C 237.019531 203.929688 214.484375 206.53125 182.015625 209.226562 C 149.554688 211.90625 116.90625 214.617188 83.234375 216.683594 C 80.371094 216.859375 74.625 217.207031 71.753906 217.382812 C 60.148438 214.71875 48.617188 214.273438 37.160156 214.929688 C 39.828125 209.175781 27.960938 198.667969 50.984375 199.578125 C 50.945312 198.460938 50.867188 196.226562 50.824219 195.109375 C 39.234375 192.984375 31.257812 188.113281 28.714844 183.101562 C 27.542969 180.605469 27.691406 178.011719 29.789062 175.703125 C 31.972656 173.382812 35.613281 171.359375 41.320312 169.910156 C 66.925781 163.964844 101.433594 166.351562 132.804688 161.996094 C 155.648438 159.351562 178.460938 156.597656 201.402344 157.054688 C 232.980469 157.96875 257.429688 153.941406 288.921875 154.945312 C 294.628906 154.851562 302.363281 153.339844 309.414062 152.21875 C 316.433594 151.023438 322.695312 150.0625 325.664062 151.347656 C 329.839844 152.367188 330.242188 154.707031 329.875 157.429688 C 320.582031 158.546875 311.339844 159.828125 302.015625 160.714844 C 297.363281 161.1875 292.734375 161.71875 288.089844 162.121094 C 283.441406 162.503906 278.808594 162.886719 274.183594 163.265625 " fill-opacity="1" fill-rule="nonzero"/></g><g fill="#feda15" fill-opacity="1"><g transform="translate(65.156573, 200.618965)"><g><path d="M 38.363281 -47.1875 C 37.46875 -47.953125 36.378906 -48.464844 35.230469 -48.914062 C 32.351562 -50.128906 29.601562 -50.636719 26.535156 -49.871094 C 23.59375 -49.105469 20.78125 -47.570312 18.542969 -45.523438 C 17.007812 -44.117188 14.320312 -41.75 14.003906 -39.511719 L 14.449219 -40.152344 C 13.808594 -38.9375 13.363281 -37.722656 13.105469 -36.570312 C 13.042969 -36.570312 13.234375 -37.59375 13.300781 -37.59375 C 12.277344 -37.59375 12.59375 -33.695312 12.660156 -33.121094 C 12.789062 -30.5 13.492188 -27.8125 14.515625 -25.382812 C 15.921875 -22.058594 17.453125 -18.796875 18.734375 -15.472656 L 19.882812 -12.59375 C 20.011719 -12.148438 20.203125 -11.636719 20.394531 -11.1875 C 20.460938 -11.1875 20.714844 -10.675781 20.714844 -10.742188 C 20.78125 -10.230469 20.90625 -9.847656 21.035156 -9.398438 C 20.90625 -9.71875 20.652344 -10.167969 20.652344 -10.421875 C 20.523438 -9.972656 20.90625 -9.398438 21.035156 -9.078125 C 21.164062 -8.441406 21.226562 -7.863281 21.226562 -7.226562 C 21.097656 -5.5625 20.523438 -3.964844 19.691406 -2.558594 C 18.03125 0.191406 15.28125 2.429688 12.210938 3.390625 C 9.972656 4.027344 7.226562 4.027344 6.203125 1.597656 C 5.308594 -0.382812 5.691406 -2.8125 6.136719 -4.859375 C 6.394531 -6.011719 6.714844 -7.160156 7.226562 -8.246094 C 7.609375 -9.269531 9.65625 -12.019531 9.078125 -13.042969 C 7.671875 -15.535156 2.941406 -9.269531 2.300781 -8.246094 C -0.382812 -3.898438 -1.664062 3.195312 3.835938 6.011719 C 7.671875 7.929688 12.722656 7.609375 16.558594 6.074219 C 17.902344 5.5625 23.722656 3.132812 23.65625 1.214844 L 22.378906 2.109375 C 26.789062 -1.726562 28.578125 -6.394531 26.855469 -12.148438 C 26.023438 -14.832031 24.488281 -17.007812 23.015625 -19.375 C 21.929688 -21.292969 21.609375 -23.144531 20.714844 -25.128906 C 21.929688 -22.699219 23.402344 -20.332031 24.679688 -17.902344 C 22.058594 -23.914062 17.007812 -31.074219 20.394531 -37.785156 C 21.929688 -40.792969 24.679688 -43.285156 27.683594 -44.757812 C 29.410156 -45.585938 31.457031 -46.289062 33.4375 -46.226562 C 35.804688 -46.035156 35.292969 -44.5 35.292969 -42.902344 C 35.421875 -43.859375 35.996094 -44.882812 35.039062 -45.84375 C 34.144531 -46.609375 32.671875 -46.355469 31.585938 -46.164062 C 29.089844 -45.714844 26.789062 -44.691406 24.808594 -43.222656 C 26.214844 -44.308594 27.8125 -45.203125 29.476562 -45.777344 C 30.945312 -46.289062 33.121094 -46.929688 34.589844 -46.289062 C 38.234375 -44.628906 33.566406 -37.660156 31.839844 -35.292969 C 32.160156 -35.867188 32.671875 -36.957031 32.800781 -37.082031 C 31.90625 -37.148438 30.113281 -32.671875 29.667969 -32.417969 C 28.132812 -30.816406 29.988281 -30.625 31.265625 -31.394531 C 32.671875 -32.222656 33.824219 -33.566406 34.910156 -34.652344 C 36.378906 -36.1875 37.722656 -37.785156 38.875 -39.511719 C 39.640625 -40.664062 41.046875 -42.519531 40.28125 -43.925781 C 39.769531 -45.140625 39.449219 -46.289062 38.363281 -47.1875 Z M 2.621094 4.601562 C -0.703125 0.449219 0.832031 -5.050781 3.835938 -9.144531 C 1.214844 -5.371094 0.128906 1.46875 2.621094 4.601562 Z M 19.117188 -32.609375 C 19.179688 -32.289062 19.117188 -31.96875 19.117188 -31.714844 Z M 19.117188 -32.609375 "/></g></g></g><g fill="#feda15" fill-opacity="1"><g transform="translate(97.061348, 200.618965)"><g><path d="M 32.542969 -15.410156 C 32.480469 -16.816406 31.328125 -15.601562 30.945312 -15.089844 C 30.113281 -13.875 29.347656 -12.59375 28.578125 -11.382812 C 26.855469 -8.757812 25.128906 -6.136719 23.144531 -3.644531 C 16.558594 4.476562 21.164062 -9.972656 20.652344 -9.847656 C 20.394531 -9.78125 20.203125 -8.824219 20.140625 -8.632812 C 20.652344 -10.933594 21.609375 -13.683594 22.824219 -15.921875 C 23.527344 -17.328125 24.359375 -18.476562 23.082031 -20.011719 C 20.714844 -22.890625 17.964844 -20.269531 16.433594 -18.285156 C 15.792969 -20.714844 14.515625 -24.296875 11.382812 -24.296875 C 9.972656 -24.296875 9.144531 -23.59375 8.183594 -22.761719 C 7.609375 -22.378906 7.160156 -22.3125 6.648438 -21.867188 C 5.816406 -21.292969 5.242188 -20.394531 4.667969 -19.628906 C 2.492188 -16.433594 0.960938 -12.402344 0.253906 -8.695312 C -0.0625 -6.90625 -0.191406 -4.921875 0.320312 -3.132812 C 0.640625 -2.109375 1.789062 0.191406 3.261719 0 C 3.324219 0 3.195312 -0.0625 3.003906 -0.191406 C 3.898438 0.0625 4.921875 -0.0625 5.691406 -0.574219 C 5.753906 -0.449219 4.988281 -0.128906 4.988281 -0.128906 C 5.691406 0.960938 10.933594 -5.371094 11.316406 -5.945312 C 12.148438 -7.097656 12.722656 -8.3125 13.492188 -9.527344 C 14.066406 -10.421875 14.960938 -11.574219 15.601562 -12.53125 C 15.535156 -12.085938 15.535156 -11.507812 15.535156 -11.507812 C 14.386719 -7.863281 13.300781 -3.898438 14.832031 -0.128906 C 15.535156 1.789062 17.261719 3.582031 19.4375 3.195312 C 21.355469 2.878906 22.953125 1.023438 24.105469 -0.449219 C 25.511719 -2.109375 26.726562 -3.964844 27.941406 -5.882812 C 28.964844 -7.609375 29.921875 -9.335938 30.753906 -11.253906 C 31.265625 -12.46875 32.671875 -13.9375 32.542969 -15.410156 Z M 14.195312 -14.960938 C 13.875 -14.515625 13.554688 -14.066406 13.300781 -13.617188 L 11.636719 -11.253906 C 10.550781 -9.65625 9.398438 -8.121094 8.183594 -6.648438 C 7.863281 -6.203125 6.328125 -4.21875 5.691406 -4.410156 C 4.730469 -4.730469 5.753906 -8.054688 5.882812 -8.566406 C 6.074219 -9.460938 9.460938 -19.308594 10.359375 -19.5 C 9.207031 -19.566406 5.5 -7.992188 5.308594 -7.03125 C 5.816406 -10.167969 6.96875 -13.234375 8.246094 -16.113281 C 8.953125 -17.582031 10.550781 -21.484375 12.660156 -21.484375 C 13.808594 -21.484375 14.066406 -19.117188 14.257812 -18.351562 C 14.195312 -18.476562 13.617188 -20.332031 13.554688 -20.269531 C 13.234375 -20.011719 14.515625 -16.496094 14.515625 -15.984375 C 14.515625 -15.472656 14.515625 -15.472656 14.195312 -14.960938 Z M 15.664062 -11.828125 C 15.664062 -11.828125 15.855469 -12.722656 15.921875 -12.914062 L 16.238281 -13.363281 Z M 14.707031 -15.792969 L 14.707031 -16.433594 C 14.898438 -16.175781 14.898438 -15.984375 14.707031 -15.792969 Z M 14.707031 -15.792969 "/></g></g></g><g fill="#feda15" fill-opacity="1"><g transform="translate(124.938067, 200.618965)"><g><path d="M 26.46875 -15.21875 C 26.152344 -16.75 25.253906 -15.730469 24.871094 -15.152344 C 23.976562 -14.066406 22.570312 -13.042969 21.484375 -12.019531 C 20.011719 -10.742188 18.542969 -9.398438 17.007812 -8.183594 C 16.238281 -7.542969 15.28125 -6.648438 14.320312 -6.328125 C 14.195312 -6.265625 13.746094 -6.203125 13.746094 -6.136719 L 13.683594 -6.203125 C 13.683594 -6.203125 13.617188 -7.226562 13.683594 -7.289062 C 13.746094 -8.121094 14.003906 -8.953125 14.257812 -9.71875 C 14.320312 -9.847656 15.023438 -12.019531 14.898438 -12.019531 L 14.578125 -11.636719 C 14.960938 -12.402344 15.472656 -13.171875 15.921875 -14.003906 C 14.898438 -13.042969 14.195312 -11.957031 13.683594 -10.613281 C 13.425781 -9.972656 12.722656 -8.824219 12.59375 -7.863281 C 12.722656 -9.269531 13.683594 -11.125 14.128906 -11.957031 C 14.769531 -13.300781 15.472656 -14.832031 16.304688 -16.113281 C 17.839844 -18.414062 21.164062 -20.523438 20.140625 -23.722656 C 19.246094 -26.726562 16.878906 -26.789062 15.023438 -25.0625 C 14.128906 -24.230469 6.523438 -14.515625 6.714844 -14.386719 C 6.714844 -14.386719 7.351562 -15.152344 8.183594 -16.238281 L 4.410156 -10.742188 C 4.347656 -10.742188 5.050781 -11.828125 4.988281 -11.890625 C 4.921875 -11.957031 4.476562 -11.507812 4.410156 -11.253906 C 4.539062 -12.59375 4.988281 -13.9375 5.113281 -15.28125 C 5.179688 -15.792969 5.113281 -16.175781 5.242188 -16.6875 C 5.5 -17.519531 5.753906 -18.414062 6.136719 -19.117188 C 6.394531 -19.628906 6.90625 -20.078125 7.03125 -20.585938 C 7.289062 -21.417969 7.226562 -21.738281 7.800781 -22.441406 C 8.3125 -23.082031 9.078125 -23.722656 9.527344 -24.296875 C 10.613281 -25.894531 8.757812 -26.980469 7.738281 -27.171875 C 6.90625 -27.300781 6.074219 -27.367188 5.308594 -26.917969 C 4.476562 -26.40625 4.667969 -25.957031 4.476562 -25.253906 C 4.285156 -24.359375 3.644531 -23.335938 3.324219 -22.507812 C 2.8125 -21.164062 2.367188 -19.820312 1.917969 -18.476562 C 1.40625 -17.136719 0.894531 -15.855469 0.511719 -14.515625 C 0.191406 -13.425781 0.253906 -12.402344 0.128906 -11.382812 C 0 -10.230469 -0.191406 -9.460938 0.382812 -8.441406 C 1.023438 -7.351562 2.75 -5.691406 3.898438 -7.097656 L 4.15625 -6.585938 C 5.242188 -8.953125 6.90625 -11.0625 8.246094 -13.363281 C 8.824219 -14.386719 9.847656 -15.089844 10.675781 -16.175781 C 11.828125 -17.710938 12.851562 -19.246094 14.128906 -20.714844 C 13.9375 -20.394531 13.105469 -18.925781 13.171875 -18.863281 C 13.300781 -18.925781 13.363281 -19.054688 13.492188 -19.179688 L 12.59375 -17.390625 C 12.53125 -17.453125 12.851562 -17.902344 12.722656 -17.902344 C 12.277344 -18.03125 10.933594 -14.449219 10.804688 -14.128906 C 10.359375 -12.722656 10.292969 -11.445312 10.167969 -9.972656 C 10.101562 -9.269531 9.972656 -8.566406 9.972656 -7.863281 C 9.972656 -7.160156 10.039062 -6.457031 10.359375 -5.753906 C 10.550781 -5.371094 10.804688 -4.859375 11.125 -4.539062 C 11.1875 -4.539062 11.890625 -3.898438 11.574219 -4.410156 L 11.957031 -4.027344 L 11.765625 -4.15625 C 11.699219 -3.835938 14.066406 -2.558594 14.449219 -2.429688 C 16.238281 -1.855469 18.160156 -3.898438 19.308594 -5.113281 C 20.84375 -6.777344 22.121094 -8.695312 23.527344 -10.484375 C 24.296875 -11.507812 26.726562 -13.683594 26.46875 -15.21875 Z M 26.46875 -15.21875 "/></g></g></g><g fill="#feda15" fill-opacity="1"><g transform="translate(146.740731, 200.618965)"><g><path d="M 37.785156 -15.601562 L 37.785156 -15.664062 C 37.402344 -17.773438 34.527344 -14.257812 34.144531 -13.9375 C 32.289062 -11.890625 30.5625 -9.65625 28.898438 -7.417969 C 27.238281 -5.113281 25.640625 -2.8125 23.914062 -0.511719 C 23.082031 0.640625 22.25 1.726562 21.292969 2.75 C 20.972656 3.132812 20.203125 4.21875 19.628906 4.21875 C 17.390625 4.21875 19.117188 -4.796875 19.375 -6.203125 C 19.757812 -8.695312 19.949219 -12.019531 21.546875 -14.003906 C 21.929688 -14.515625 26.277344 -20.078125 26.277344 -20.078125 C 26.152344 -20.140625 25.640625 -19.5 25.320312 -19.117188 L 28.070312 -22.824219 L 28.261719 -23.082031 L 28.324219 -23.082031 L 28.261719 -23.082031 L 28.773438 -23.785156 C 28.835938 -23.722656 28.773438 -23.59375 28.707031 -23.464844 L 29.285156 -24.105469 L 30.945312 -26.277344 C 32.160156 -28.003906 33.3125 -29.859375 34.398438 -31.648438 C 36.125 -34.589844 38.492188 -38.808594 37.210938 -42.390625 C 36.253906 -45.011719 32.734375 -45.523438 30.371094 -44.628906 C 28.644531 -43.988281 27.171875 -42.644531 25.957031 -41.238281 C 25.320312 -40.410156 24.679688 -39.511719 24.105469 -38.554688 C 23.914062 -38.296875 23.082031 -36.253906 22.890625 -35.996094 L 22.953125 -35.996094 C 22.570312 -35.292969 22.1875 -34.589844 21.929688 -33.886719 C 22.058594 -34.398438 22.378906 -35.421875 22.632812 -35.613281 C 22.121094 -35.230469 21.675781 -33.375 21.546875 -33.183594 C 19.117188 -27.875 17.007812 -22.507812 15.472656 -16.878906 C 13.746094 -18.863281 10.996094 -22.25 7.992188 -21.035156 C 5.5 -20.011719 3.644531 -17.390625 2.367188 -15.089844 C 1.214844 -13.042969 0.894531 -10.933594 0.0625 -8.953125 C -1.40625 -5.5625 -2.109375 1.40625 2.878906 2.429688 C 4.410156 2.75 5.816406 1.789062 7.03125 0.960938 C 9.207031 -0.640625 11.253906 -2.492188 13.171875 -4.410156 C 12.851562 -1.023438 12.148438 4.09375 14.898438 6.777344 C 18.285156 10.230469 21.675781 5.5625 23.722656 3.003906 C 26.34375 -0.320312 28.386719 -4.027344 31.007812 -7.226562 C 32.289062 -8.757812 33.566406 -10.292969 34.910156 -11.699219 C 35.933594 -12.722656 37.980469 -14.003906 37.785156 -15.601562 Z M 14.257812 -11.382812 C 14.195312 -11.1875 14.195312 -11.0625 14.195312 -11.0625 C 13.9375 -9.527344 13.9375 -8.183594 12.851562 -7.097656 C 11.890625 -6.074219 10.871094 -5.113281 9.847656 -4.15625 C 8.886719 -3.261719 6.585938 -0.640625 5.113281 -0.765625 C 3.324219 -0.960938 4.667969 -5.050781 5.5625 -7.542969 C 4.601562 -4.988281 3.070312 -0.832031 5.179688 -0.703125 C 5.753906 -0.640625 6.714844 -1.152344 7.542969 -1.855469 C 6.777344 -1.152344 5.5 -0.191406 4.730469 -0.574219 C 3.261719 -1.214844 4.539062 -4.859375 4.796875 -5.882812 C 5.625 -8.824219 6.839844 -11.636719 8.246094 -14.320312 C 8.953125 -15.664062 9.972656 -17.839844 11.316406 -17.964844 L 10.996094 -17.773438 C 11.0625 -17.839844 11.125 -17.839844 11.1875 -17.839844 C 11.636719 -17.964844 12.085938 -17.648438 12.402344 -17.390625 C 13.234375 -16.816406 13.746094 -15.730469 14.320312 -14.898438 C 14.960938 -13.875 14.515625 -12.789062 14.257812 -11.636719 Z M 24.550781 -26.152344 C 24.550781 -26.214844 24.550781 -26.34375 24.617188 -26.40625 L 24.617188 -26.46875 C 24.679688 -26.660156 24.742188 -26.726562 24.742188 -26.726562 L 24.742188 -26.789062 C 26.214844 -30.882812 27.8125 -34.972656 30.113281 -38.683594 C 30.691406 -39.640625 32.351562 -42.582031 33.824219 -41.75 C 34.398438 -41.429688 34.527344 -40.601562 34.527344 -40.023438 C 34.78125 -36.1875 31.714844 -31.648438 29.792969 -28.578125 C 27.558594 -25 25.0625 -21.484375 22.441406 -18.222656 L 23.847656 -19.691406 L 25.128906 -21.292969 L 21.867188 -17.070312 L 21.417969 -16.496094 L 21.164062 -16.238281 C 21.226562 -16.625 21.546875 -17.007812 21.867188 -17.453125 C 21.738281 -17.328125 21.609375 -17.199219 21.546875 -17.070312 C 22.378906 -19.820312 23.273438 -22.570312 24.230469 -25.320312 C 24.167969 -25.253906 24.230469 -25.382812 24.296875 -25.640625 L 24.488281 -25.957031 C 24.488281 -26.023438 24.488281 -26.085938 24.550781 -26.152344 Z M 19.179688 -20.90625 C 19.054688 -20.585938 18.667969 -19.117188 18.476562 -18.925781 C 18.476562 -18.863281 18.414062 -18.796875 18.351562 -18.796875 C 18.863281 -19.4375 18.542969 -20.269531 18.796875 -21.035156 C 18.925781 -21.417969 19.566406 -22.121094 19.691406 -22.632812 C 19.691406 -22.121094 19.375 -21.226562 19.179688 -20.90625 Z M 9.015625 -3.195312 C 10.613281 -4.601562 12.148438 -6.074219 13.617188 -7.609375 C 13.492188 -6.777344 11.507812 -5.371094 10.804688 -4.730469 C 9.972656 -3.898438 9.015625 -3.070312 8.054688 -2.300781 L 7.992188 -2.300781 Z M 20.332031 -26.726562 C 20.078125 -25.957031 19.757812 -25.253906 19.375 -24.550781 C 19.691406 -25.511719 19.882812 -26.46875 20.332031 -27.367188 C 20.714844 -28.070312 21.164062 -28.964844 21.484375 -29.792969 C 21.164062 -28.773438 20.652344 -27.683594 20.332031 -26.726562 Z M 24.488281 -25.957031 L 24.230469 -25.320312 C 24.230469 -25.382812 24.296875 -25.511719 24.296875 -25.640625 Z M 10.675781 -17.519531 C 10.421875 -17.328125 10.230469 -17.070312 10.167969 -17.070312 C 10.292969 -17.070312 10.484375 -17.328125 10.675781 -17.519531 Z M 12.46875 -17.648438 C 12.59375 -17.582031 12.722656 -17.519531 12.851562 -17.390625 Z M 25.128906 -18.796875 C 25.128906 -18.863281 25.191406 -18.925781 25.253906 -18.988281 C 25.191406 -18.863281 25.128906 -18.796875 25.128906 -18.796875 Z M 25.253906 -18.988281 L 25.320312 -19.117188 C 25.320312 -19.054688 25.253906 -18.988281 25.253906 -18.988281 Z M 25.253906 -18.988281 "/></g></g></g><g fill="#feda15" fill-opacity="1"><g transform="translate(179.860319, 200.618965)"><g><path d="M 26.40625 -15.730469 L 26.40625 -15.792969 C 25.894531 -17.390625 23.210938 -13.234375 22.890625 -12.851562 C 20.78125 -10.421875 18.351562 -7.671875 15.28125 -6.457031 C 14.515625 -6.074219 12.980469 -5.5625 12.59375 -6.457031 C 12.339844 -7.03125 12.59375 -8.375 12.53125 -9.015625 C 12.402344 -9.847656 12.277344 -10.742188 11.890625 -11.507812 C 10.804688 -13.300781 9.589844 -12.085938 9.207031 -10.613281 C 8.886719 -9.144531 8.886719 -7.480469 9.207031 -6.074219 C 9.335938 -5.308594 9.972656 -4.539062 10.101562 -3.773438 C 10.230469 -3.132812 9.910156 -2.175781 9.78125 -1.535156 C 9.207031 1.34375 8.3125 4.09375 7.160156 6.777344 C 6.394531 8.695312 2.367188 17.582031 -0.0625 13.042969 L -0.128906 12.980469 L 0.128906 13.171875 C -0.449219 10.613281 0.449219 7.480469 1.023438 4.988281 C 1.917969 1.34375 3.003906 -2.175781 4.21875 -5.691406 C 4.476562 -6.585938 4.796875 -7.480469 5.113281 -8.441406 C 5.5 -9.398438 5.625 -9.65625 6.265625 -10.359375 C 7.097656 -11.1875 7.863281 -12.085938 8.632812 -12.914062 C 11.0625 -15.730469 13.425781 -18.542969 15.664062 -21.417969 C 19.375 -26.214844 22.761719 -31.585938 25.128906 -37.148438 C 26.34375 -40.089844 28.195312 -48.847656 22.378906 -48.207031 C 19.4375 -47.890625 16.945312 -43.667969 15.410156 -41.496094 C 13.300781 -38.425781 11.445312 -35.101562 9.78125 -31.839844 C 6.714844 -25.957031 3.773438 -20.011719 1.980469 -13.683594 C 0.0625 -6.96875 -2.75 -0.449219 -3.132812 6.714844 C -3.324219 9.65625 -3.324219 14.003906 -0.703125 15.984375 C 2.300781 18.285156 5.433594 16.433594 7.226562 13.683594 C 9.269531 10.550781 10.101562 6.394531 11.125 2.8125 C 11.382812 1.917969 11.574219 1.023438 11.765625 0.128906 C 11.828125 -0.382812 11.890625 -2.492188 12.277344 -2.8125 C 12.59375 -3.132812 14.003906 -3.070312 14.386719 -3.195312 C 17.648438 -4.09375 21.164062 -6.714844 22.890625 -9.65625 C 23.914062 -11.253906 26.980469 -13.492188 26.40625 -15.730469 Z M 9.078125 -18.734375 C 9.078125 -18.796875 9.144531 -18.863281 9.144531 -18.925781 L 9.144531 -18.863281 C 9.527344 -19.691406 9.589844 -19.949219 9.527344 -19.882812 C 11.765625 -25.191406 14.066406 -30.5 16.75 -35.550781 C 18.09375 -38.042969 19.375 -40.601562 21.097656 -42.839844 C 21.546875 -43.414062 22.3125 -44.691406 23.144531 -44.4375 C 25.574219 -43.734375 19.4375 -31.519531 18.542969 -30.050781 C 15.472656 -24.871094 11.765625 -20.011719 7.738281 -15.472656 Z M 0.640625 2.492188 C 0.894531 1.597656 1.152344 0.703125 1.46875 -0.128906 C 1.023438 1.277344 0.640625 2.8125 0.382812 4.285156 C 0.128906 5.5 -0.832031 8.441406 -0.832031 10.675781 C -1.152344 7.929688 -0.191406 4.921875 0.640625 2.492188 Z M 9.335938 -19.375 L 9.527344 -19.882812 C 9.527344 -19.820312 9.398438 -19.566406 9.335938 -19.375 Z M 9.335938 -19.375 "/></g></g></g><g fill="#feda15" fill-opacity="1"><g transform="translate(201.662984, 200.618965)"><g><path d="M 16.75 -15.730469 C 16.625 -16.558594 15.730469 -16.304688 15.28125 -15.984375 C 14.707031 -15.601562 11.507812 -11.382812 11.765625 -11.0625 C 11.957031 -11.0625 12.085938 -11.0625 12.210938 -11.1875 C 11.316406 -10.101562 9.65625 -8.886719 8.441406 -7.929688 C 7.738281 -7.351562 6.011719 -5.753906 4.988281 -6.265625 C 2.8125 -7.351562 7.226562 -15.023438 7.03125 -15.089844 C 6.839844 -15.152344 5.242188 -11.574219 4.921875 -10.742188 C 5.691406 -12.980469 6.714844 -15.21875 7.929688 -17.199219 C 7.863281 -17.007812 7.671875 -16.6875 7.800781 -16.6875 C 7.929688 -16.625 8.886719 -17.964844 8.695312 -18.09375 C 8.632812 -18.09375 8.503906 -18.09375 8.441406 -18.03125 C 8.632812 -18.222656 8.953125 -18.285156 8.953125 -18.667969 C 8.953125 -19.308594 7.480469 -19.949219 6.96875 -20.140625 C 5.753906 -20.652344 4.539062 -20.78125 3.582031 -20.140625 C 2.300781 -19.375 2.046875 -17.839844 1.535156 -16.496094 C 1.40625 -16.113281 0.191406 -11.574219 0.449219 -11.507812 C 0.574219 -11.574219 0.574219 -11.636719 0.640625 -11.765625 L 0.449219 -10.613281 C 0.382812 -10.613281 0.511719 -10.933594 0.382812 -10.933594 C -0.128906 -10.933594 0 -8.632812 0.0625 -8.3125 C 0.320312 -7.160156 1.214844 -6.328125 1.917969 -5.371094 C 2.300781 -4.796875 2.683594 -4.21875 3.261719 -3.835938 C 4.027344 -3.261719 3.515625 -3.835938 4.027344 -3.582031 L 3.898438 -3.582031 C 3.835938 -3.195312 6.265625 -2.558594 6.777344 -2.621094 C 9.015625 -3.132812 10.613281 -5.882812 11.890625 -7.609375 C 13.105469 -9.144531 14.128906 -10.675781 15.21875 -12.277344 C 15.855469 -13.105469 17.007812 -14.515625 16.75 -15.730469 Z M 5.5625 -23.785156 C 5.691406 -23.59375 5.5 -23.335938 5.945312 -23.082031 C 6.394531 -22.890625 6.648438 -23.144531 7.03125 -23.273438 C 7.800781 -23.59375 8.375 -24.425781 8.953125 -24.9375 C 9.144531 -25.0625 8.757812 -25 8.757812 -25 C 9.589844 -25.765625 8.886719 -24.871094 9.65625 -25.320312 C 10.421875 -25.832031 10.550781 -26.660156 11.1875 -27.367188 C 10.421875 -27.046875 9.847656 -26.597656 9.335938 -25.957031 C 8.695312 -25.128906 8.246094 -24.742188 7.542969 -24.296875 C 8.3125 -24.871094 8.695312 -25.445312 9.335938 -26.46875 C 9.527344 -26.660156 9.71875 -26.789062 9.972656 -26.917969 C 9.78125 -27.109375 9.78125 -27.300781 10.039062 -27.492188 C 10.230469 -27.8125 10.613281 -27.941406 10.804688 -28.261719 C 11.125 -28.707031 11.0625 -29.285156 11.445312 -29.730469 C 11.765625 -29.988281 12.210938 -30.179688 12.46875 -30.433594 C 13.042969 -30.945312 13.683594 -31.90625 13.425781 -32.734375 C 13.171875 -33.503906 12.53125 -34.460938 11.828125 -34.910156 C 10.996094 -35.359375 9.847656 -35.550781 8.953125 -35.164062 C 8.757812 -35.101562 7.992188 -34.910156 8.246094 -34.652344 C 8.3125 -34.527344 8.375 -34.527344 8.503906 -34.527344 C 7.929688 -34.078125 6.96875 -33.3125 8.3125 -32.800781 C 8.183594 -32.671875 8.3125 -32.097656 8.3125 -32.03125 C 8.246094 -31.585938 7.351562 -29.21875 6.777344 -28.070312 L 7.542969 -29.21875 C 7.097656 -28.261719 6.585938 -27.367188 6.011719 -26.597656 C 6.394531 -27.429688 5.625 -26.46875 5.625 -26.277344 C 4.921875 -26.597656 5.113281 -24.617188 5.179688 -24.425781 C 5.179688 -24.359375 5.5625 -23.785156 5.5625 -23.785156 Z M 4.347656 -8.566406 L 4.347656 -8.503906 L 4.21875 -8.121094 L 4.347656 -8.632812 C 4.410156 -8.695312 4.410156 -8.695312 4.347656 -8.566406 Z M 6.457031 -27.558594 C 6.457031 -27.558594 6.585938 -27.683594 6.714844 -27.941406 Z M 5.816406 -26.34375 C 5.816406 -26.277344 5.816406 -26.277344 5.753906 -26.214844 C 5.753906 -26.214844 5.753906 -26.277344 5.691406 -26.277344 C 5.753906 -26.277344 5.753906 -26.277344 5.816406 -26.34375 Z M 5.816406 -26.34375 "/></g></g></g><g fill="#feda15" fill-opacity="1"><g transform="translate(213.747154, 200.618965)"><g><path d="M 24.488281 -15.792969 C 24.488281 -15.730469 24.488281 -15.730469 24.425781 -15.792969 L 24.425781 -15.855469 C 23.402344 -17.582031 22.058594 -15.21875 21.484375 -14.386719 C 20.394531 -12.914062 19.375 -11.507812 18.222656 -10.167969 C 17.261719 -9.015625 16.238281 -7.863281 15.472656 -6.648438 C 15.472656 -6.523438 15.34375 -6.203125 15.34375 -6.203125 C 15.089844 -5.816406 14.707031 -5.5 14.386719 -5.113281 C 13.808594 -4.539062 13.234375 -3.898438 12.59375 -3.324219 C 11.636719 -2.429688 6.265625 2.621094 5.5625 -0.640625 C 5.179688 -2.238281 5.691406 -4.21875 6.011719 -5.753906 C 6.203125 -6.585938 6.394531 -7.351562 6.523438 -8.183594 C 6.648438 -8.824219 6.457031 -9.460938 6.777344 -10.101562 C 6.96875 -10.484375 7.03125 -10.421875 7.480469 -10.550781 L 8.566406 -10.933594 C 9.269531 -11.1875 9.972656 -11.445312 10.613281 -11.828125 C 11.574219 -12.402344 12.46875 -13.105469 13.300781 -13.808594 C 15.28125 -15.472656 17.390625 -17.453125 18.222656 -19.949219 C 18.667969 -21.355469 18.734375 -22.890625 17.839844 -24.105469 C 17.007812 -25.191406 15.601562 -25.765625 14.320312 -26.023438 C 10.871094 -26.660156 8.246094 -24.679688 6.265625 -22.058594 C 3.835938 -19.054688 2.109375 -15.34375 1.277344 -11.574219 C 0.832031 -9.71875 0.574219 -7.863281 0.253906 -5.945312 C -0.0625 -4.027344 -0.253906 -2.238281 0.765625 -0.449219 C 0.703125 -1.085938 0.574219 -1.664062 0.574219 -2.238281 C 0.574219 -2.558594 0.703125 -2.878906 0.703125 -3.132812 C 0.703125 -3.261719 0.574219 -3.644531 0.574219 -3.835938 C 0.574219 -4.410156 0.703125 -4.859375 0.832031 -5.433594 C 0.894531 -6.011719 0.832031 -6.585938 0.894531 -7.160156 C 0.960938 -7.800781 1.214844 -8.3125 1.46875 -8.886719 C 1.664062 -9.398438 1.726562 -9.847656 1.917969 -10.359375 C 2.109375 -10.804688 2.238281 -11.316406 2.429688 -11.828125 C 2.492188 -12.148438 2.8125 -12.53125 3.003906 -12.914062 C 2.8125 -12.339844 2.429688 -11.828125 2.300781 -11.316406 C 2.109375 -10.550781 2.238281 -9.71875 2.175781 -8.953125 C 2.046875 -8.121094 1.789062 -7.289062 1.664062 -6.394531 C 1.535156 -5.5625 1.152344 -4.796875 1.023438 -3.964844 C 0.894531 -3.195312 0.640625 -2.621094 0.703125 -1.855469 C 0.703125 -1.40625 0.765625 -0.960938 0.832031 -0.574219 C 0.894531 -0.0625 1.214844 0.253906 1.535156 0.640625 C 2.621094 1.917969 4.09375 2.941406 5.753906 3.390625 C 6.90625 3.707031 7.929688 3.644531 9.015625 3.070312 C 10.550781 2.238281 11.890625 0.960938 13.042969 -0.253906 C 14.128906 -1.46875 14.960938 -2.8125 15.921875 -4.09375 C 16.816406 -5.242188 17.902344 -6.328125 18.796875 -7.480469 L 22.25 -11.957031 L 24.230469 -14.578125 C 24.550781 -14.960938 24.742188 -15.28125 24.488281 -15.792969 Z M 8.632812 -15.089844 C 8.695312 -15.21875 8.695312 -15.28125 8.695312 -15.28125 C 9.65625 -17.328125 10.359375 -19.5 11.699219 -21.484375 L 12.851562 -23.015625 C 13.105469 -23.335938 13.554688 -23.914062 14.003906 -24.039062 C 14.960938 -24.230469 15.21875 -22.570312 15.152344 -21.929688 L 14.898438 -20.585938 C 14.832031 -20.203125 14.960938 -19.949219 14.898438 -19.628906 C 14.769531 -19.246094 14.449219 -19.054688 14.257812 -18.734375 L 13.171875 -17.328125 C 11.699219 -15.601562 9.847656 -14.128906 7.800781 -13.042969 C 8.121094 -13.746094 8.3125 -14.449219 8.632812 -15.089844 Z M 8.632812 -15.089844 "/></g></g></g><g fill="#feda15" fill-opacity="1"><g transform="translate(233.631697, 200.618965)"><g><path d="M 25.574219 -16.304688 C 24.679688 -15.34375 24.105469 -13.746094 23.402344 -12.59375 C 22.3125 -10.742188 21.226562 -8.953125 20.078125 -7.160156 C 17.902344 -3.707031 15.730469 -0.191406 13.105469 2.941406 C 12.019531 4.285156 9.71875 7.542969 7.542969 7.289062 C 5.945312 7.03125 5.945312 4.285156 5.945312 3.070312 C 5.945312 2.046875 6.011719 1.023438 6.136719 0.0625 C 6.203125 -0.511719 6.714844 -2.429688 6.394531 -2.941406 L 5.882812 -1.023438 C 5.945312 -1.789062 6.074219 -2.621094 6.265625 -3.390625 C 6.203125 -3.515625 6.777344 -5.308594 6.90625 -5.882812 C 7.226562 -7.160156 7.542969 -8.441406 7.929688 -9.71875 C 8.246094 -10.996094 8.566406 -12.210938 8.953125 -13.425781 C 9.269531 -14.578125 9.71875 -15.152344 10.421875 -16.046875 C 13.300781 -19.628906 15.921875 -23.527344 18.351562 -27.429688 C 19.246094 -28.898438 19.820312 -30.179688 20.90625 -31.394531 C 22.507812 -33.054688 23.59375 -35.550781 24.617188 -37.59375 C 26.34375 -40.921875 28.644531 -45.523438 28.261719 -49.421875 L 28.261719 -49.742188 L 28.195312 -49.808594 C 27.8125 -52.300781 25.511719 -55.242188 22.699219 -54.347656 C 21.226562 -53.898438 20.140625 -52.363281 19.246094 -51.277344 L 17.773438 -49.296875 C 17.453125 -48.914062 17.007812 -47.953125 16.6875 -47.441406 L 16.75 -47.503906 L 14.707031 -43.988281 L 15.21875 -45.074219 C 14.898438 -45.140625 13.492188 -42.390625 13.300781 -42.070312 C 12.59375 -40.855469 11.957031 -39.640625 11.382812 -38.425781 C 10.101562 -35.867188 8.824219 -33.246094 7.992188 -30.5 C 7.097656 -27.75 6.074219 -25.0625 5.113281 -22.3125 C 4.601562 -20.84375 4.09375 -19.308594 3.644531 -17.839844 C 3.261719 -16.625 2.367188 -14.640625 2.558594 -13.363281 L 2.75 -13.363281 C 2.558594 -12.914062 2.429688 -12.46875 2.300781 -12.019531 C 2.367188 -12.402344 2.367188 -12.851562 2.429688 -12.980469 C 2.109375 -12.53125 2.175781 -10.996094 2.109375 -10.871094 C 1.277344 -7.417969 0.320312 -3.964844 0.0625 -0.382812 C -0.128906 3.003906 -0.128906 7.480469 2.558594 9.972656 C 5.5625 12.722656 9.015625 10.871094 11.507812 8.503906 C 14.449219 5.625 16.945312 2.238281 19.246094 -1.085938 C 21.355469 -4.15625 23.015625 -7.417969 24.9375 -10.484375 C 25.703125 -11.765625 26.535156 -13.042969 26.917969 -14.449219 C 27.171875 -15.472656 27.046875 -17.839844 25.574219 -16.304688 Z M 17.582031 -39.195312 C 18.863281 -42.261719 20.140625 -45.394531 21.929688 -48.273438 C 22.378906 -48.976562 25.253906 -52.8125 25.128906 -49.421875 L 25.128906 -49.359375 C 25 -45.777344 22.699219 -42.007812 21.164062 -38.9375 L 18.476562 -33.949219 C 17.582031 -32.417969 16.046875 -30.5 15.535156 -28.835938 C 15.921875 -29.859375 17.070312 -31.328125 17.648438 -32.289062 C 18.605469 -33.886719 19.4375 -35.484375 20.332031 -37.082031 C 21.800781 -39.898438 23.402344 -42.839844 24.488281 -45.90625 C 21.609375 -37.339844 16.238281 -29.347656 11.507812 -21.738281 C 13.363281 -27.367188 15.21875 -33.503906 17.582031 -39.195312 Z M 15.535156 -43.667969 C 16.175781 -44.882812 17.328125 -45.90625 17.964844 -47.058594 C 16.625 -44.371094 14.960938 -41.941406 13.554688 -39.386719 C 13.554688 -39.449219 13.554688 -39.578125 13.617188 -39.640625 C 14.195312 -41.046875 14.832031 -42.328125 15.535156 -43.667969 Z M 3.453125 -10.613281 C 3.390625 -10.484375 3.390625 -10.421875 3.390625 -10.421875 C 2.621094 -8.632812 2.558594 -6.203125 2.175781 -4.285156 C 2.109375 -3.835938 1.980469 -3.453125 1.980469 -3.003906 L 1.980469 -3.195312 L 1.789062 -1.152344 C 1.917969 -3.453125 2.175781 -5.816406 2.621094 -8.054688 L 2.621094 -7.992188 C 2.8125 -9.460938 3.132812 -10.804688 3.390625 -10.804688 C 3.515625 -10.871094 3.515625 -10.675781 3.453125 -10.613281 Z M 3.453125 -10.613281 "/></g></g></g><g fill="#feda15" fill-opacity="1"><g transform="translate(256.265546, 200.618965)"><g><path d="M 37.785156 -15.601562 L 37.785156 -15.664062 C 37.402344 -17.773438 34.527344 -14.257812 34.144531 -13.9375 C 32.289062 -11.890625 30.5625 -9.65625 28.898438 -7.417969 C 27.238281 -5.113281 25.640625 -2.8125 23.914062 -0.511719 C 23.082031 0.640625 22.25 1.726562 21.292969 2.75 C 20.972656 3.132812 20.203125 4.21875 19.628906 4.21875 C 17.390625 4.21875 19.117188 -4.796875 19.375 -6.203125 C 19.757812 -8.695312 19.949219 -12.019531 21.546875 -14.003906 C 21.929688 -14.515625 26.277344 -20.078125 26.277344 -20.078125 C 26.152344 -20.140625 25.640625 -19.5 25.320312 -19.117188 L 28.070312 -22.824219 L 28.261719 -23.082031 L 28.324219 -23.082031 L 28.261719 -23.082031 L 28.773438 -23.785156 C 28.835938 -23.722656 28.773438 -23.59375 28.707031 -23.464844 L 29.285156 -24.105469 L 30.945312 -26.277344 C 32.160156 -28.003906 33.3125 -29.859375 34.398438 -31.648438 C 36.125 -34.589844 38.492188 -38.808594 37.210938 -42.390625 C 36.253906 -45.011719 32.734375 -45.523438 30.371094 -44.628906 C 28.644531 -43.988281 27.171875 -42.644531 25.957031 -41.238281 C 25.320312 -40.410156 24.679688 -39.511719 24.105469 -38.554688 C 23.914062 -38.296875 23.082031 -36.253906 22.890625 -35.996094 L 22.953125 -35.996094 C 22.570312 -35.292969 22.1875 -34.589844 21.929688 -33.886719 C 22.058594 -34.398438 22.378906 -35.421875 22.632812 -35.613281 C 22.121094 -35.230469 21.675781 -33.375 21.546875 -33.183594 C 19.117188 -27.875 17.007812 -22.507812 15.472656 -16.878906 C 13.746094 -18.863281 10.996094 -22.25 7.992188 -21.035156 C 5.5 -20.011719 3.644531 -17.390625 2.367188 -15.089844 C 1.214844 -13.042969 0.894531 -10.933594 0.0625 -8.953125 C -1.40625 -5.5625 -2.109375 1.40625 2.878906 2.429688 C 4.410156 2.75 5.816406 1.789062 7.03125 0.960938 C 9.207031 -0.640625 11.253906 -2.492188 13.171875 -4.410156 C 12.851562 -1.023438 12.148438 4.09375 14.898438 6.777344 C 18.285156 10.230469 21.675781 5.5625 23.722656 3.003906 C 26.34375 -0.320312 28.386719 -4.027344 31.007812 -7.226562 C 32.289062 -8.757812 33.566406 -10.292969 34.910156 -11.699219 C 35.933594 -12.722656 37.980469 -14.003906 37.785156 -15.601562 Z M 14.257812 -11.382812 C 14.195312 -11.1875 14.195312 -11.0625 14.195312 -11.0625 C 13.9375 -9.527344 13.9375 -8.183594 12.851562 -7.097656 C 11.890625 -6.074219 10.871094 -5.113281 9.847656 -4.15625 C 8.886719 -3.261719 6.585938 -0.640625 5.113281 -0.765625 C 3.324219 -0.960938 4.667969 -5.050781 5.5625 -7.542969 C 4.601562 -4.988281 3.070312 -0.832031 5.179688 -0.703125 C 5.753906 -0.640625 6.714844 -1.152344 7.542969 -1.855469 C 6.777344 -1.152344 5.5 -0.191406 4.730469 -0.574219 C 3.261719 -1.214844 4.539062 -4.859375 4.796875 -5.882812 C 5.625 -8.824219 6.839844 -11.636719 8.246094 -14.320312 C 8.953125 -15.664062 9.972656 -17.839844 11.316406 -17.964844 L 10.996094 -17.773438 C 11.0625 -17.839844 11.125 -17.839844 11.1875 -17.839844 C 11.636719 -17.964844 12.085938 -17.648438 12.402344 -17.390625 C 13.234375 -16.816406 13.746094 -15.730469 14.320312 -14.898438 C 14.960938 -13.875 14.515625 -12.789062 14.257812 -11.636719 Z M 24.550781 -26.152344 C 24.550781 -26.214844 24.550781 -26.34375 24.617188 -26.40625 L 24.617188 -26.46875 C 24.679688 -26.660156 24.742188 -26.726562 24.742188 -26.726562 L 24.742188 -26.789062 C 26.214844 -30.882812 27.8125 -34.972656 30.113281 -38.683594 C 30.691406 -39.640625 32.351562 -42.582031 33.824219 -41.75 C 34.398438 -41.429688 34.527344 -40.601562 34.527344 -40.023438 C 34.78125 -36.1875 31.714844 -31.648438 29.792969 -28.578125 C 27.558594 -25 25.0625 -21.484375 22.441406 -18.222656 L 23.847656 -19.691406 L 25.128906 -21.292969 L 21.867188 -17.070312 L 21.417969 -16.496094 L 21.164062 -16.238281 C 21.226562 -16.625 21.546875 -17.007812 21.867188 -17.453125 C 21.738281 -17.328125 21.609375 -17.199219 21.546875 -17.070312 C 22.378906 -19.820312 23.273438 -22.570312 24.230469 -25.320312 C 24.167969 -25.253906 24.230469 -25.382812 24.296875 -25.640625 L 24.488281 -25.957031 C 24.488281 -26.023438 24.488281 -26.085938 24.550781 -26.152344 Z M 19.179688 -20.90625 C 19.054688 -20.585938 18.667969 -19.117188 18.476562 -18.925781 C 18.476562 -18.863281 18.414062 -18.796875 18.351562 -18.796875 C 18.863281 -19.4375 18.542969 -20.269531 18.796875 -21.035156 C 18.925781 -21.417969 19.566406 -22.121094 19.691406 -22.632812 C 19.691406 -22.121094 19.375 -21.226562 19.179688 -20.90625 Z M 9.015625 -3.195312 C 10.613281 -4.601562 12.148438 -6.074219 13.617188 -7.609375 C 13.492188 -6.777344 11.507812 -5.371094 10.804688 -4.730469 C 9.972656 -3.898438 9.015625 -3.070312 8.054688 -2.300781 L 7.992188 -2.300781 Z M 20.332031 -26.726562 C 20.078125 -25.957031 19.757812 -25.253906 19.375 -24.550781 C 19.691406 -25.511719 19.882812 -26.46875 20.332031 -27.367188 C 20.714844 -28.070312 21.164062 -28.964844 21.484375 -29.792969 C 21.164062 -28.773438 20.652344 -27.683594 20.332031 -26.726562 Z M 24.488281 -25.957031 L 24.230469 -25.320312 C 24.230469 -25.382812 24.296875 -25.511719 24.296875 -25.640625 Z M 10.675781 -17.519531 C 10.421875 -17.328125 10.230469 -17.070312 10.167969 -17.070312 C 10.292969 -17.070312 10.484375 -17.328125 10.675781 -17.519531 Z M 12.46875 -17.648438 C 12.59375 -17.582031 12.722656 -17.519531 12.851562 -17.390625 Z M 25.128906 -18.796875 C 25.128906 -18.863281 25.191406 -18.925781 25.253906 -18.988281 C 25.191406 -18.863281 25.128906 -18.796875 25.128906 -18.796875 Z M 25.253906 -18.988281 L 25.320312 -19.117188 C 25.320312 -19.054688 25.253906 -18.988281 25.253906 -18.988281 Z M 25.253906 -18.988281 "/></g></g></g><g fill="#feda15" fill-opacity="1"><g transform="translate(289.385134, 200.618965)"><g><path d="M 25.382812 -15.023438 C 25.191406 -15.921875 24.679688 -16.046875 24.039062 -15.792969 C 22.824219 -15.21875 21.609375 -13.9375 20.460938 -13.171875 C 17.839844 -11.507812 15.21875 -10.167969 12.402344 -8.757812 C 12.402344 -8.824219 12.339844 -8.953125 12.277344 -9.144531 C 12.339844 -8.824219 12.277344 -8.695312 12.210938 -8.632812 C 11.574219 -11.382812 10.933594 -14.128906 10.421875 -16.945312 C 10.675781 -15.730469 11.253906 -13.683594 11.699219 -11.957031 C 11.125 -14.640625 10.421875 -17.964844 10.484375 -17.964844 C 10.359375 -17.902344 10.359375 -17.773438 10.359375 -17.648438 C 10.230469 -18.414062 10.039062 -19.375 10.167969 -20.203125 C 10.230469 -21.164062 10.742188 -21.996094 11.0625 -22.890625 C 10.996094 -22.441406 10.871094 -21.867188 10.871094 -21.867188 C 11.253906 -21.800781 11.507812 -24.167969 11.507812 -24.425781 C 11.445312 -24.808594 10.613281 -26.023438 10.613281 -25.703125 C 8.886719 -27.300781 5.5 -23.785156 4.988281 -22.25 C 4.601562 -21.226562 4.601562 -20.140625 4.667969 -19.054688 C 4.730469 -17.964844 5.050781 -17.007812 5.371094 -15.984375 C 5.5625 -15.21875 5.308594 -14.707031 5.371094 -13.875 C 5.5 -12.59375 5.945312 -11.316406 6.203125 -10.101562 C 6.457031 -9.144531 7.289062 -7.226562 7.097656 -6.328125 C 6.96875 -5.433594 5.050781 -4.667969 4.21875 -4.15625 C 3.132812 -3.453125 2.046875 -2.621094 0.960938 -1.789062 C -0.960938 -0.320312 -3.003906 1.535156 -3.773438 3.898438 C -3.898438 4.21875 -4.347656 5.625 -3.898438 5.882812 C -3.835938 5.945312 -3.644531 4.859375 -3.582031 4.730469 C -4.410156 8.953125 -0.253906 10.996094 3.644531 11.0625 C 8.054688 11.1875 11.125 8.632812 12.660156 4.667969 C 13.300781 2.941406 13.492188 1.152344 13.425781 -0.640625 C 13.425781 -1.855469 13.300781 -3.003906 13.105469 -4.15625 C 12.980469 -5.179688 12.851562 -5.113281 13.554688 -5.691406 C 14.066406 -6.074219 14.832031 -6.328125 15.34375 -6.585938 C 17.390625 -7.671875 19.246094 -8.953125 21.097656 -10.292969 C 22.441406 -11.253906 25.640625 -12.914062 25.382812 -14.960938 Z M -0.449219 6.96875 C -2.109375 6.457031 -0.449219 3.835938 0.128906 3.003906 C 1.085938 1.726562 2.492188 0.765625 3.773438 -0.128906 L 5.691406 -1.40625 C 5.882812 -1.535156 7.097656 -2.492188 6.714844 -2.367188 L 7.480469 -2.8125 L 7.03125 -2.429688 C 7.160156 -2.492188 7.351562 -2.558594 7.480469 -2.683594 C 7.542969 -1.152344 7.542969 0.382812 7.097656 1.917969 C 7.03125 2.175781 5.816406 4.730469 5.308594 5.242188 L 5.625 4.988281 C 5.050781 5.691406 4.410156 6.265625 3.644531 6.714844 C 3.644531 6.648438 4.21875 6.265625 4.15625 6.203125 L 2.367188 6.90625 C 1.46875 7.097656 0.449219 7.289062 -0.449219 6.96875 Z M 7.609375 8.824219 C 5.945312 9.527344 4.347656 9.847656 2.621094 9.910156 C 5.753906 9.71875 9.015625 8.183594 10.871094 5.5625 C 10.167969 6.96875 9.269531 8.054688 7.609375 8.824219 Z M 12.277344 -9.335938 C 12.210938 -9.78125 12.085938 -10.421875 11.890625 -11.125 C 12.019531 -10.421875 12.148438 -9.71875 12.277344 -9.335938 Z M 13.105469 -2.683594 C 13.042969 -2.75 13.042969 -2.878906 13.042969 -3.003906 C 13.042969 -2.878906 13.105469 -2.75 13.105469 -2.683594 Z M 13.105469 -2.683594 "/></g></g></g><g fill="#efefef" fill-opacity="1"><g transform="translate(85.63598, 230.116989)"><g><path d="M 6.421875 0 L 6.421875 -5.21875 L 4.109375 -1.1875 L 3.75 -1.1875 L 1.421875 -5.21875 L 1.421875 0 L 0.796875 0 L 0.796875 -6.359375 L 1.4375 -6.359375 L 3.921875 -2 L 6.421875 -6.359375 L 7.0625 -6.359375 L 7.0625 0 Z M 6.421875 0 "/></g></g></g><g fill="#efefef" fill-opacity="1"><g transform="translate(96.619255, 230.116989)"><g><path d="M 5.0625 -0.5625 L 5.0625 0 L 0.796875 0 L 0.796875 -6.359375 L 4.984375 -6.359375 L 4.984375 -5.796875 L 1.421875 -5.796875 L 1.421875 -3.515625 L 4.53125 -3.515625 L 4.53125 -2.984375 L 1.421875 -2.984375 L 1.421875 -0.5625 Z M 5.0625 -0.5625 "/></g></g></g><g fill="#efefef" fill-opacity="1"><g transform="translate(105.203563, 230.116989)"><g><path d="M 6.421875 0 L 6.421875 -5.21875 L 4.109375 -1.1875 L 3.75 -1.1875 L 1.421875 -5.21875 L 1.421875 0 L 0.796875 0 L 0.796875 -6.359375 L 1.4375 -6.359375 L 3.921875 -2 L 6.421875 -6.359375 L 7.0625 -6.359375 L 7.0625 0 Z M 6.421875 0 "/></g></g></g><g fill="#efefef" fill-opacity="1"><g transform="translate(116.186837, 230.116989)"><g><path d="M 5.578125 -1.640625 C 5.578125 -1.398438 5.53125 -1.179688 5.4375 -0.984375 C 5.34375 -0.785156 5.210938 -0.609375 5.046875 -0.453125 C 4.890625 -0.304688 4.703125 -0.191406 4.484375 -0.109375 C 4.265625 -0.0351562 4.035156 0 3.796875 0 L 0.796875 0 L 0.796875 -6.359375 L 3.859375 -6.359375 C 4.078125 -6.359375 4.273438 -6.304688 4.453125 -6.203125 C 4.640625 -6.109375 4.796875 -5.984375 4.921875 -5.828125 C 5.046875 -5.679688 5.140625 -5.507812 5.203125 -5.3125 C 5.273438 -5.125 5.3125 -4.929688 5.3125 -4.734375 C 5.3125 -4.410156 5.226562 -4.113281 5.0625 -3.84375 C 4.90625 -3.582031 4.679688 -3.390625 4.390625 -3.265625 C 4.753906 -3.148438 5.039062 -2.945312 5.25 -2.65625 C 5.46875 -2.363281 5.578125 -2.023438 5.578125 -1.640625 Z M 4.953125 -1.75 C 4.953125 -1.90625 4.925781 -2.054688 4.875 -2.203125 C 4.820312 -2.347656 4.742188 -2.472656 4.640625 -2.578125 C 4.546875 -2.691406 4.429688 -2.78125 4.296875 -2.84375 C 4.160156 -2.914062 4.015625 -2.953125 3.859375 -2.953125 L 1.421875 -2.953125 L 1.421875 -0.546875 L 3.796875 -0.546875 C 3.953125 -0.546875 4.097656 -0.578125 4.234375 -0.640625 C 4.378906 -0.710938 4.503906 -0.800781 4.609375 -0.90625 C 4.710938 -1.019531 4.796875 -1.148438 4.859375 -1.296875 C 4.921875 -1.441406 4.953125 -1.59375 4.953125 -1.75 Z M 1.421875 -5.8125 L 1.421875 -3.46875 L 3.609375 -3.46875 C 3.765625 -3.46875 3.910156 -3.5 4.046875 -3.5625 C 4.179688 -3.625 4.296875 -3.707031 4.390625 -3.8125 C 4.484375 -3.925781 4.554688 -4.050781 4.609375 -4.1875 C 4.660156 -4.332031 4.6875 -4.484375 4.6875 -4.640625 C 4.6875 -4.796875 4.660156 -4.945312 4.609375 -5.09375 C 4.566406 -5.238281 4.5 -5.363281 4.40625 -5.46875 C 4.3125 -5.570312 4.203125 -5.65625 4.078125 -5.71875 C 3.953125 -5.78125 3.8125 -5.8125 3.65625 -5.8125 Z M 1.421875 -5.8125 "/></g></g></g><g fill="#efefef" fill-opacity="1"><g transform="translate(125.281372, 230.116989)"><g><path d="M 5.0625 -0.5625 L 5.0625 0 L 0.796875 0 L 0.796875 -6.359375 L 4.984375 -6.359375 L 4.984375 -5.796875 L 1.421875 -5.796875 L 1.421875 -3.515625 L 4.53125 -3.515625 L 4.53125 -2.984375 L 1.421875 -2.984375 L 1.421875 -0.5625 Z M 5.0625 -0.5625 "/></g></g></g><g fill="#efefef" fill-opacity="1"><g transform="translate(133.865681, 230.116989)"><g><path d="M 0.796875 0 L 0.796875 -6.359375 L 3.484375 -6.359375 C 3.753906 -6.359375 4.003906 -6.296875 4.234375 -6.171875 C 4.460938 -6.054688 4.660156 -5.90625 4.828125 -5.71875 C 4.992188 -5.53125 5.125 -5.316406 5.21875 -5.078125 C 5.3125 -4.847656 5.359375 -4.609375 5.359375 -4.359375 C 5.359375 -4.128906 5.320312 -3.90625 5.25 -3.6875 C 5.1875 -3.476562 5.09375 -3.285156 4.96875 -3.109375 C 4.851562 -2.941406 4.707031 -2.800781 4.53125 -2.6875 C 4.351562 -2.570312 4.160156 -2.492188 3.953125 -2.453125 L 5.5 0 L 4.796875 0 L 3.296875 -2.34375 L 1.421875 -2.34375 L 1.421875 0 Z M 1.421875 -2.90625 L 3.5 -2.90625 C 3.6875 -2.90625 3.851562 -2.941406 4 -3.015625 C 4.15625 -3.097656 4.285156 -3.207031 4.390625 -3.34375 C 4.503906 -3.476562 4.585938 -3.632812 4.640625 -3.8125 C 4.703125 -3.988281 4.734375 -4.171875 4.734375 -4.359375 C 4.734375 -4.546875 4.695312 -4.726562 4.625 -4.90625 C 4.5625 -5.082031 4.472656 -5.234375 4.359375 -5.359375 C 4.242188 -5.492188 4.101562 -5.597656 3.9375 -5.671875 C 3.78125 -5.753906 3.617188 -5.796875 3.453125 -5.796875 L 1.421875 -5.796875 Z M 1.421875 -2.90625 "/></g></g></g><g fill="#efefef" fill-opacity="1"><g transform="translate(142.843854, 230.116989)"><g><path d="M 0.765625 0.71875 L 0.921875 -0.03125 L 0.71875 -0.03125 L 0.71875 -0.875 L 1.3125 -0.875 L 1.3125 -0.03125 L 1.078125 0.71875 Z M 0.765625 0.71875 "/></g></g></g><g fill="#efefef" fill-opacity="1"><g transform="translate(147.990845, 230.116989)"><g/></g></g><g fill="#efefef" fill-opacity="1"><g transform="translate(153.406386, 230.116989)"><g><path d="M 0.796875 0 L 0.796875 -6.359375 L 1.421875 -6.359375 L 1.421875 -0.5625 L 5.09375 -0.5625 L 5.09375 0 Z M 0.796875 0 "/></g></g></g><g fill="#efefef" fill-opacity="1"><g transform="translate(161.757961, 230.116989)"><g><path d="M 5.0625 -0.5625 L 5.0625 0 L 0.796875 0 L 0.796875 -6.359375 L 4.984375 -6.359375 L 4.984375 -5.796875 L 1.421875 -5.796875 L 1.421875 -3.515625 L 4.53125 -3.515625 L 4.53125 -2.984375 L 1.421875 -2.984375 L 1.421875 -0.5625 Z M 5.0625 -0.5625 "/></g></g></g><g fill="#efefef" fill-opacity="1"><g transform="translate(170.342267, 230.116989)"><g/></g></g><g fill="#efefef" fill-opacity="1"><g transform="translate(175.757808, 230.116989)"><g><path d="M 5.578125 -1.640625 C 5.578125 -1.398438 5.53125 -1.179688 5.4375 -0.984375 C 5.34375 -0.785156 5.210938 -0.609375 5.046875 -0.453125 C 4.890625 -0.304688 4.703125 -0.191406 4.484375 -0.109375 C 4.265625 -0.0351562 4.035156 0 3.796875 0 L 0.796875 0 L 0.796875 -6.359375 L 3.859375 -6.359375 C 4.078125 -6.359375 4.273438 -6.304688 4.453125 -6.203125 C 4.640625 -6.109375 4.796875 -5.984375 4.921875 -5.828125 C 5.046875 -5.679688 5.140625 -5.507812 5.203125 -5.3125 C 5.273438 -5.125 5.3125 -4.929688 5.3125 -4.734375 C 5.3125 -4.410156 5.226562 -4.113281 5.0625 -3.84375 C 4.90625 -3.582031 4.679688 -3.390625 4.390625 -3.265625 C 4.753906 -3.148438 5.039062 -2.945312 5.25 -2.65625 C 5.46875 -2.363281 5.578125 -2.023438 5.578125 -1.640625 Z M 4.953125 -1.75 C 4.953125 -1.90625 4.925781 -2.054688 4.875 -2.203125 C 4.820312 -2.347656 4.742188 -2.472656 4.640625 -2.578125 C 4.546875 -2.691406 4.429688 -2.78125 4.296875 -2.84375 C 4.160156 -2.914062 4.015625 -2.953125 3.859375 -2.953125 L 1.421875 -2.953125 L 1.421875 -0.546875 L 3.796875 -0.546875 C 3.953125 -0.546875 4.097656 -0.578125 4.234375 -0.640625 C 4.378906 -0.710938 4.503906 -0.800781 4.609375 -0.90625 C 4.710938 -1.019531 4.796875 -1.148438 4.859375 -1.296875 C 4.921875 -1.441406 4.953125 -1.59375 4.953125 -1.75 Z M 1.421875 -5.8125 L 1.421875 -3.46875 L 3.609375 -3.46875 C 3.765625 -3.46875 3.910156 -3.5 4.046875 -3.5625 C 4.179688 -3.625 4.296875 -3.707031 4.390625 -3.8125 C 4.484375 -3.925781 4.554688 -4.050781 4.609375 -4.1875 C 4.660156 -4.332031 4.6875 -4.484375 4.6875 -4.640625 C 4.6875 -4.796875 4.660156 -4.945312 4.609375 -5.09375 C 4.566406 -5.238281 4.5 -5.363281 4.40625 -5.46875 C 4.3125 -5.570312 4.203125 -5.65625 4.078125 -5.71875 C 3.953125 -5.78125 3.8125 -5.8125 3.65625 -5.8125 Z M 1.421875 -5.8125 "/></g></g></g><g fill="#efefef" fill-opacity="1"><g transform="translate(184.85234, 230.116989)"><g><path d="M 3.359375 0.046875 C 2.910156 0.046875 2.503906 -0.0390625 2.140625 -0.21875 C 1.773438 -0.40625 1.460938 -0.648438 1.203125 -0.953125 C 0.941406 -1.253906 0.738281 -1.597656 0.59375 -1.984375 C 0.445312 -2.367188 0.375 -2.765625 0.375 -3.171875 C 0.375 -3.597656 0.445312 -4.003906 0.59375 -4.390625 C 0.75 -4.785156 0.960938 -5.128906 1.234375 -5.421875 C 1.503906 -5.722656 1.820312 -5.960938 2.1875 -6.140625 C 2.550781 -6.316406 2.941406 -6.40625 3.359375 -6.40625 C 3.804688 -6.40625 4.210938 -6.3125 4.578125 -6.125 C 4.941406 -5.9375 5.253906 -5.6875 5.515625 -5.375 C 5.773438 -5.070312 5.976562 -4.726562 6.125 -4.34375 C 6.269531 -3.957031 6.34375 -3.566406 6.34375 -3.171875 C 6.34375 -2.742188 6.265625 -2.335938 6.109375 -1.953125 C 5.953125 -1.566406 5.738281 -1.222656 5.46875 -0.921875 C 5.207031 -0.628906 4.894531 -0.394531 4.53125 -0.21875 C 4.175781 -0.0390625 3.785156 0.046875 3.359375 0.046875 Z M 1 -3.171875 C 1 -2.828125 1.054688 -2.492188 1.171875 -2.171875 C 1.285156 -1.859375 1.445312 -1.578125 1.65625 -1.328125 C 1.863281 -1.078125 2.109375 -0.878906 2.390625 -0.734375 C 2.679688 -0.585938 3.003906 -0.515625 3.359375 -0.515625 C 3.710938 -0.515625 4.035156 -0.59375 4.328125 -0.75 C 4.617188 -0.90625 4.863281 -1.109375 5.0625 -1.359375 C 5.269531 -1.609375 5.429688 -1.890625 5.546875 -2.203125 C 5.660156 -2.523438 5.71875 -2.847656 5.71875 -3.171875 C 5.71875 -3.523438 5.65625 -3.859375 5.53125 -4.171875 C 5.414062 -4.492188 5.253906 -4.773438 5.046875 -5.015625 C 4.835938 -5.265625 4.585938 -5.460938 4.296875 -5.609375 C 4.015625 -5.753906 3.703125 -5.828125 3.359375 -5.828125 C 2.992188 -5.828125 2.664062 -5.75 2.375 -5.59375 C 2.082031 -5.445312 1.832031 -5.25 1.625 -5 C 1.425781 -4.75 1.269531 -4.460938 1.15625 -4.140625 C 1.050781 -3.828125 1 -3.503906 1 -3.171875 Z M 1 -3.171875 "/></g></g></g><g fill="#efefef" fill-opacity="1"><g transform="translate(194.707746, 230.116989)"><g><path d="M 1.421875 -5.1875 L 1.421875 0 L 0.796875 0 L 0.796875 -6.359375 L 1.28125 -6.359375 L 5.484375 -1.0625 L 5.484375 -6.34375 L 6.109375 -6.34375 L 6.109375 0 L 5.5625 0 Z M 1.421875 -5.1875 "/></g></g></g><g fill="#efefef" fill-opacity="1"><g transform="translate(204.751128, 230.116989)"><g/></g></g><g fill="#efefef" fill-opacity="1"><g transform="translate(210.166669, 230.116989)"><g><path d="M 5.8125 -6.359375 L 5.8125 0 L 5.1875 0 L 5.1875 -2.96875 L 1.421875 -2.96875 L 1.421875 0 L 0.796875 0 L 0.796875 -6.359375 L 1.421875 -6.359375 L 1.421875 -3.53125 L 5.1875 -3.53125 L 5.1875 -6.359375 Z M 5.8125 -6.359375 "/></g></g></g><g fill="#efefef" fill-opacity="1"><g transform="translate(219.905704, 230.116989)"><g><path d="M 3.359375 0.046875 C 2.910156 0.046875 2.503906 -0.0390625 2.140625 -0.21875 C 1.773438 -0.40625 1.460938 -0.648438 1.203125 -0.953125 C 0.941406 -1.253906 0.738281 -1.597656 0.59375 -1.984375 C 0.445312 -2.367188 0.375 -2.765625 0.375 -3.171875 C 0.375 -3.597656 0.445312 -4.003906 0.59375 -4.390625 C 0.75 -4.785156 0.960938 -5.128906 1.234375 -5.421875 C 1.503906 -5.722656 1.820312 -5.960938 2.1875 -6.140625 C 2.550781 -6.316406 2.941406 -6.40625 3.359375 -6.40625 C 3.804688 -6.40625 4.210938 -6.3125 4.578125 -6.125 C 4.941406 -5.9375 5.253906 -5.6875 5.515625 -5.375 C 5.773438 -5.070312 5.976562 -4.726562 6.125 -4.34375 C 6.269531 -3.957031 6.34375 -3.566406 6.34375 -3.171875 C 6.34375 -2.742188 6.265625 -2.335938 6.109375 -1.953125 C 5.953125 -1.566406 5.738281 -1.222656 5.46875 -0.921875 C 5.207031 -0.628906 4.894531 -0.394531 4.53125 -0.21875 C 4.175781 -0.0390625 3.785156 0.046875 3.359375 0.046875 Z M 1 -3.171875 C 1 -2.828125 1.054688 -2.492188 1.171875 -2.171875 C 1.285156 -1.859375 1.445312 -1.578125 1.65625 -1.328125 C 1.863281 -1.078125 2.109375 -0.878906 2.390625 -0.734375 C 2.679688 -0.585938 3.003906 -0.515625 3.359375 -0.515625 C 3.710938 -0.515625 4.035156 -0.59375 4.328125 -0.75 C 4.617188 -0.90625 4.863281 -1.109375 5.0625 -1.359375 C 5.269531 -1.609375 5.429688 -1.890625 5.546875 -2.203125 C 5.660156 -2.523438 5.71875 -2.847656 5.71875 -3.171875 C 5.71875 -3.523438 5.65625 -3.859375 5.53125 -4.171875 C 5.414062 -4.492188 5.253906 -4.773438 5.046875 -5.015625 C 4.835938 -5.265625 4.585938 -5.460938 4.296875 -5.609375 C 4.015625 -5.753906 3.703125 -5.828125 3.359375 -5.828125 C 2.992188 -5.828125 2.664062 -5.75 2.375 -5.59375 C 2.082031 -5.445312 1.832031 -5.25 1.625 -5 C 1.425781 -4.75 1.269531 -4.460938 1.15625 -4.140625 C 1.050781 -3.828125 1 -3.503906 1 -3.171875 Z M 1 -3.171875 "/></g></g></g><g fill="#efefef" fill-opacity="1"><g transform="translate(229.76111, 230.116989)"><g><path d="M 5.3125 -5.796875 L 3.046875 -5.796875 L 3.046875 0 L 2.421875 0 L 2.421875 -5.796875 L 0.15625 -5.796875 L 0.15625 -6.359375 L 5.3125 -6.359375 Z M 5.3125 -5.796875 "/></g></g></g><g fill="#efefef" fill-opacity="1"><g transform="translate(238.354373, 230.116989)"><g><path d="M 5.0625 -0.5625 L 5.0625 0 L 0.796875 0 L 0.796875 -6.359375 L 4.984375 -6.359375 L 4.984375 -5.796875 L 1.421875 -5.796875 L 1.421875 -3.515625 L 4.53125 -3.515625 L 4.53125 -2.984375 L 1.421875 -2.984375 L 1.421875 -0.5625 Z M 5.0625 -0.5625 "/></g></g></g><g fill="#efefef" fill-opacity="1"><g transform="translate(246.938678, 230.116989)"><g><path d="M 0.796875 0 L 0.796875 -6.359375 L 1.421875 -6.359375 L 1.421875 -0.5625 L 5.09375 -0.5625 L 5.09375 0 Z M 0.796875 0 "/></g></g></g><g fill="#efefef" fill-opacity="1"><g transform="translate(255.290253, 230.116989)"><g/></g></g><g fill="#efefef" fill-opacity="1"><g transform="translate(260.705795, 230.116989)"><g><path d="M 5.390625 -0.9375 C 4.796875 -0.28125 4.113281 0.046875 3.34375 0.046875 C 2.914062 0.046875 2.519531 -0.046875 2.15625 -0.234375 C 1.800781 -0.421875 1.488281 -0.664062 1.21875 -0.96875 C 0.957031 -1.269531 0.75 -1.613281 0.59375 -2 C 0.445312 -2.382812 0.375 -2.78125 0.375 -3.1875 C 0.375 -3.613281 0.445312 -4.019531 0.59375 -4.40625 C 0.738281 -4.789062 0.941406 -5.128906 1.203125 -5.421875 C 1.472656 -5.722656 1.785156 -5.960938 2.140625 -6.140625 C 2.492188 -6.316406 2.882812 -6.40625 3.3125 -6.40625 C 3.625 -6.40625 3.90625 -6.367188 4.15625 -6.296875 C 4.414062 -6.234375 4.644531 -6.140625 4.84375 -6.015625 C 5.039062 -5.890625 5.210938 -5.738281 5.359375 -5.5625 C 5.515625 -5.394531 5.640625 -5.210938 5.734375 -5.015625 L 5.25 -4.6875 C 5.039062 -5.082031 4.769531 -5.375 4.4375 -5.5625 C 4.101562 -5.75 3.722656 -5.84375 3.296875 -5.84375 C 2.953125 -5.84375 2.632812 -5.765625 2.34375 -5.609375 C 2.0625 -5.460938 1.820312 -5.265625 1.625 -5.015625 C 1.425781 -4.765625 1.269531 -4.476562 1.15625 -4.15625 C 1.050781 -3.84375 1 -3.515625 1 -3.171875 C 1 -2.816406 1.0625 -2.476562 1.1875 -2.15625 C 1.3125 -1.832031 1.476562 -1.550781 1.6875 -1.3125 C 1.90625 -1.070312 2.160156 -0.878906 2.453125 -0.734375 C 2.742188 -0.585938 3.054688 -0.515625 3.390625 -0.515625 C 3.753906 -0.515625 4.101562 -0.597656 4.4375 -0.765625 C 4.769531 -0.941406 5.085938 -1.210938 5.390625 -1.578125 L 5.390625 -2.640625 L 3.96875 -2.640625 L 3.96875 -3.125 L 5.921875 -3.125 L 5.921875 0 L 5.390625 0 Z M 5.390625 -0.9375 "/></g></g></g><g fill="#efefef" fill-opacity="1"><g transform="translate(270.247896, 230.116989)"><g><path d="M 0.796875 0 L 0.796875 -6.359375 L 3.484375 -6.359375 C 3.753906 -6.359375 4.003906 -6.296875 4.234375 -6.171875 C 4.460938 -6.054688 4.660156 -5.90625 4.828125 -5.71875 C 4.992188 -5.53125 5.125 -5.316406 5.21875 -5.078125 C 5.3125 -4.847656 5.359375 -4.609375 5.359375 -4.359375 C 5.359375 -4.128906 5.320312 -3.90625 5.25 -3.6875 C 5.1875 -3.476562 5.09375 -3.285156 4.96875 -3.109375 C 4.851562 -2.941406 4.707031 -2.800781 4.53125 -2.6875 C 4.351562 -2.570312 4.160156 -2.492188 3.953125 -2.453125 L 5.5 0 L 4.796875 0 L 3.296875 -2.34375 L 1.421875 -2.34375 L 1.421875 0 Z M 1.421875 -2.90625 L 3.5 -2.90625 C 3.6875 -2.90625 3.851562 -2.941406 4 -3.015625 C 4.15625 -3.097656 4.285156 -3.207031 4.390625 -3.34375 C 4.503906 -3.476562 4.585938 -3.632812 4.640625 -3.8125 C 4.703125 -3.988281 4.734375 -4.171875 4.734375 -4.359375 C 4.734375 -4.546875 4.695312 -4.726562 4.625 -4.90625 C 4.5625 -5.082031 4.472656 -5.234375 4.359375 -5.359375 C 4.242188 -5.492188 4.101562 -5.597656 3.9375 -5.671875 C 3.78125 -5.753906 3.617188 -5.796875 3.453125 -5.796875 L 1.421875 -5.796875 Z M 1.421875 -2.90625 "/></g></g></g><g fill="#efefef" fill-opacity="1"><g transform="translate(279.22608, 230.116989)"><g><path d="M 0.796875 0 L 0.796875 -6.359375 L 3.421875 -6.359375 C 3.703125 -6.359375 3.957031 -6.296875 4.1875 -6.171875 C 4.414062 -6.054688 4.613281 -5.90625 4.78125 -5.71875 C 4.945312 -5.53125 5.078125 -5.316406 5.171875 -5.078125 C 5.265625 -4.847656 5.3125 -4.609375 5.3125 -4.359375 C 5.3125 -4.097656 5.265625 -3.84375 5.171875 -3.59375 C 5.085938 -3.351562 4.960938 -3.140625 4.796875 -2.953125 C 4.640625 -2.773438 4.445312 -2.628906 4.21875 -2.515625 C 4 -2.398438 3.753906 -2.34375 3.484375 -2.34375 L 1.421875 -2.34375 L 1.421875 0 Z M 1.421875 -2.90625 L 3.453125 -2.90625 C 3.640625 -2.90625 3.804688 -2.941406 3.953125 -3.015625 C 4.109375 -3.097656 4.238281 -3.207031 4.34375 -3.34375 C 4.457031 -3.476562 4.539062 -3.632812 4.59375 -3.8125 C 4.65625 -3.988281 4.6875 -4.171875 4.6875 -4.359375 C 4.6875 -4.554688 4.648438 -4.742188 4.578125 -4.921875 C 4.515625 -5.097656 4.425781 -5.25 4.3125 -5.375 C 4.195312 -5.507812 4.054688 -5.613281 3.890625 -5.6875 C 3.734375 -5.757812 3.570312 -5.796875 3.40625 -5.796875 L 1.421875 -5.796875 Z M 1.421875 -2.90625 "/></g></g></g><g fill="#efefef" fill-opacity="1"><g transform="translate(287.926768, 230.116989)"><g><path d="M 0.578125 0 L 0.578125 -0.875 L 1.109375 -0.875 L 1.109375 0 Z M 0.578125 0 "/></g></g></g></svg>